<svg width="439" height="419" viewBox="0 0 439 419" fill="none" xmlns="http://www.w3.org/2000/svg">
<path d="M223.218 186.846C222.991 156.733 220.11 127.355 219.014 97.8793C217.011 142.068 213.329 186.179 214.569 230.451C211.656 230.934 211.195 228.688 210.247 227.295C190.54 198.324 176.983 166.889 173.704 131.738C170.299 95.2378 178.65 61.2307 197.216 29.6657C202.67 20.3919 208.931 11.6748 215.081 2.87043C217.705 -0.886077 219.893 -0.958015 222.686 2.66941C262.874 54.8736 276.681 111.725 253.751 175.355C248.203 190.752 242.23 205.866 233.641 219.837C231.314 223.622 229.332 227.724 224.336 231.377C223.745 216.012 224.672 201.673 223.218 186.846Z" fill="#E88395"/>
<path d="M266.173 253.359C257.273 252.357 249.271 250.187 240.189 246.508C268.268 234.406 296.157 225.622 321.785 210.945C314.704 212.776 307.582 214.467 300.552 216.477C293.209 218.577 285.934 220.924 278.666 223.276C271.398 225.629 264.252 228.394 256.91 230.478C249.641 232.541 242.772 236.061 234.819 237.038C235.044 235.325 236.024 233.825 236.285 233.464C255.04 207.541 273.615 184.522 303.183 169.867C342.444 150.407 382.573 149.803 423.494 163.682C424.863 164.146 426.192 164.725 427.552 165.214C440.651 169.927 440.645 169.92 432.771 181.106C409.676 213.916 380.005 237.937 340.892 248.908C316.56 255.732 291.801 257.913 266.173 253.359Z" fill="#C5AF9F"/>
<path d="M171.976 253.359C180.877 252.357 188.879 250.187 197.961 246.508C169.881 234.406 141.992 225.622 116.364 210.945C123.446 212.776 130.567 214.467 137.598 216.477C144.941 218.577 152.215 220.924 159.483 223.276C166.752 225.629 173.898 228.394 181.239 230.478C188.509 232.541 195.378 236.061 203.331 237.038C203.331 236.074 201.816 233.825 201.555 233.464C182.799 207.541 164.534 184.522 134.966 169.867C95.7052 150.407 55.5766 149.803 14.6554 163.682C13.2869 164.146 11.9576 164.725 10.5971 165.214C-2.50188 169.927 -2.49598 169.92 5.37803 181.106C28.4731 213.916 58.1442 237.937 97.2575 248.908C121.589 255.732 146.348 257.913 171.976 253.359Z" fill="#C5AF9F"/>
<path d="M294.211 396.393C250.596 368.503 215.222 301.697 225.659 264.728C249.422 290.961 271.339 317.644 296.08 341.752C275.256 313.977 255.822 285.186 233.341 257.36C239.925 255.909 244.692 257.618 249.229 258.849C285.516 268.7 316.256 286.529 335.803 320.127C348.412 341.801 354.686 365.315 356.282 390.187C356.718 396.979 356.892 403.789 357.101 410.594C357.313 417.52 355.834 418.9 349.231 417.568C329.852 413.657 311.471 407.089 294.211 396.393Z" fill="#C5AF9F"/>
<path d="M130.352 288.752C152.263 270.175 176.798 258.906 205.419 256.683C202.341 265.214 196.594 271.914 190.686 277.516C194.733 270.674 196.166 268.042 198.185 262.893C141.087 269.206 82.3051 347.599 91.6496 405.783C100.333 404.434 108.624 401.648 116.986 399.123C165.049 384.608 190.823 349.696 204.649 303.694C207.339 294.745 209.04 285.684 210.031 276.423C210.381 273.148 210.774 270.282 206.235 269.921C207.728 266.795 209.644 265.174 212.348 264.704C214.219 265.421 214.394 266.938 214.319 268.355C212.182 308.713 201.404 345.541 171.536 374.836C152.39 393.615 129.186 404.665 103.747 411.713C98.5783 413.145 93.3221 414.26 88.1233 415.587C84.4905 416.515 82.6865 415.499 82.708 411.436C82.9299 369.467 91.0125 330.135 120.629 298.021C123.559 294.843 126.878 292.024 130.352 288.752Z" fill="#C5AF9F"/>
<path d="M162.484 324.629C151.321 338.273 146.36 345.095 132.716 353.777C157.523 322.148 163.725 310.365 189.772 278.736C174.888 308.505 171.787 312.226 162.484 324.629Z" fill="#C5AF9F"/>
</svg>
