<svg width="644" height="715" viewBox="0 0 644 715" fill="none" xmlns="http://www.w3.org/2000/svg">
<path d="M325.918 186.846C325.691 156.733 322.81 127.355 321.714 97.8793C319.711 142.068 316.029 186.179 317.269 230.451C314.356 230.934 313.895 228.688 312.947 227.295C293.24 198.324 279.683 166.889 276.404 131.738C272.999 95.2378 281.35 61.2307 299.916 29.6657C305.37 20.3919 311.631 11.6748 317.781 2.87043C320.405 -0.886077 322.593 -0.958015 325.386 2.66941C365.573 54.8736 379.381 111.725 356.451 175.355C350.903 190.752 344.93 205.866 336.341 219.837C334.014 223.622 332.031 227.724 327.036 231.377C326.445 216.012 327.372 201.673 325.918 186.846Z" fill="#E88395"/>
<path d="M368.873 253.359C359.973 252.357 351.971 250.187 342.889 246.508C370.968 234.406 398.857 225.622 424.485 210.945C417.404 212.776 410.282 214.467 403.252 216.477C395.909 218.577 388.634 220.924 381.366 223.276C374.098 225.629 366.952 228.394 359.61 230.478C352.341 232.541 345.472 236.061 337.519 237.038C337.744 235.325 338.724 233.825 338.985 233.464C357.74 207.541 376.315 184.522 405.883 169.867C445.144 150.407 485.273 149.803 526.194 163.682C527.563 164.146 528.892 164.725 530.252 165.214C543.351 169.927 543.345 169.92 535.471 181.106C512.376 213.916 482.705 237.937 443.592 248.908C419.26 255.732 394.501 257.913 368.873 253.359Z" fill="#C5AF9F"/>
<path d="M274.676 253.359C283.577 252.357 291.579 250.187 300.661 246.508C272.581 234.406 244.692 225.622 219.064 210.945C226.146 212.776 233.267 214.467 240.297 216.477C247.64 218.577 254.915 220.924 262.183 223.276C269.452 225.629 276.598 228.394 283.939 230.478C291.209 232.541 298.077 236.061 306.031 237.038C306.031 236.074 304.516 233.825 304.255 233.464C285.499 207.541 267.234 184.522 237.666 169.867C198.405 150.407 158.277 149.803 117.355 163.682C115.987 164.146 114.658 164.725 113.297 165.214C100.198 169.927 100.204 169.92 108.078 181.106C131.173 213.916 160.844 237.937 199.957 248.908C224.289 255.732 249.048 257.913 274.676 253.359Z" fill="#C5AF9F"/>
<path d="M396.911 396.393C353.296 368.503 317.922 301.697 328.359 264.728C352.122 290.961 374.039 317.644 398.78 341.752C377.956 313.977 358.522 285.186 336.041 257.36C342.625 255.909 347.392 257.618 351.929 258.849C388.216 268.7 418.956 286.529 438.503 320.127C451.112 341.801 457.386 365.315 458.982 390.187C459.418 396.979 459.592 403.789 459.801 410.594C460.013 417.52 458.534 418.9 451.931 417.568C432.552 413.657 414.171 407.089 396.911 396.393Z" fill="#C5AF9F"/>
<path d="M233.052 288.752C254.963 270.175 279.498 258.906 308.119 256.683C305.041 265.214 299.294 271.914 293.386 277.516C297.433 270.674 298.866 268.042 300.885 262.893C243.786 269.206 185.005 347.599 194.35 405.783C203.033 404.434 211.324 401.648 219.686 399.123C267.749 384.608 293.523 349.696 307.349 303.694C310.039 294.745 311.74 285.684 312.731 276.423C313.081 273.148 313.474 270.282 308.935 269.921C310.428 266.795 312.344 265.174 315.048 264.704C316.919 265.421 317.094 266.938 317.019 268.355C314.882 308.713 304.104 345.541 274.236 374.836C255.09 393.615 231.886 404.665 206.447 411.713C201.278 413.145 196.022 414.26 190.823 415.587C187.19 416.515 185.386 415.499 185.408 411.436C185.63 369.467 193.712 330.135 223.329 298.021C226.259 294.843 229.577 292.024 233.052 288.752Z" fill="#C5AF9F"/>
<path d="M265.184 324.629C254.021 338.273 249.06 345.095 235.416 353.777C260.223 322.148 266.425 310.365 292.472 278.736C277.588 308.505 274.487 312.226 265.184 324.629Z" fill="#C5AF9F"/>
<path d="M543.002 587.66C540.842 593.3 539.162 598.1 537.962 602.06C536.882 606.02 536.942 608 538.142 608H529.502C530.222 608 531.002 607.4 531.842 606.2C532.682 605 533.582 603.44 534.542 601.52C535.502 599.48 536.462 597.26 537.422 594.86C538.502 592.34 539.582 589.82 540.662 587.3L583.502 478.94H584.762L628.682 586.04C629.762 588.8 630.902 591.5 632.102 594.14C633.302 596.78 634.502 599.12 635.702 601.16C637.022 603.2 638.282 604.88 639.482 606.2C640.682 607.4 641.882 608 643.082 608H615.002C616.322 608 617.042 607.22 617.162 605.66C617.402 603.98 617.222 601.94 616.622 599.54C616.142 597.14 615.362 594.5 614.282 591.62C613.322 588.74 612.362 586.04 611.402 583.52L605.642 568.94H550.202L543.002 587.66ZM550.922 567.32H604.922L577.562 498.56L550.922 567.32Z" fill="black"/>
<path d="M431.512 482C441.232 482 449.752 483.8 457.072 487.4C464.392 491 470.452 495.74 475.252 501.62C480.172 507.5 483.832 514.22 486.232 521.78C488.752 529.34 490.012 537.08 490.012 545C490.012 552.8 488.812 560.48 486.412 568.04C484.012 575.48 480.352 582.2 475.432 588.2C470.632 594.08 464.572 598.88 457.252 602.6C450.052 606.2 441.592 608 431.872 608H383.632C385.072 608 386.152 606.44 386.872 603.32C387.592 600.08 388.072 596.12 388.312 591.44C388.672 586.64 388.852 581.54 388.852 576.14C388.852 570.74 388.852 565.88 388.852 561.56V528.44C388.852 524.12 388.852 519.26 388.852 513.86C388.852 508.46 388.672 503.42 388.312 498.74C388.072 493.94 387.592 489.98 386.872 486.86C386.152 483.62 385.072 482 383.632 482H431.512ZM403.432 593.42C403.432 595.34 403.492 597.14 403.612 598.82C403.732 600.38 404.092 601.7 404.692 602.78C405.412 603.86 406.432 604.7 407.752 605.3C409.192 605.9 411.232 606.26 413.872 606.38H431.692C441.292 606.38 449.272 603.38 455.632 597.38C461.992 591.26 466.732 583.64 469.852 574.52C473.092 565.4 474.712 555.56 474.712 545C474.712 534.44 473.092 524.6 469.852 515.48C466.612 506.36 461.812 498.8 455.452 492.8C449.092 486.68 441.112 483.62 431.512 483.62H403.432V593.42Z" fill="black"/>
<path d="M335.097 608H251.037C252.477 608 253.557 606.44 254.277 603.32C254.997 600.08 255.477 596.12 255.717 591.44C256.077 586.64 256.257 581.54 256.257 576.14C256.257 570.74 256.257 565.88 256.257 561.56V528.44C256.257 524.12 256.257 519.26 256.257 513.86C256.257 508.46 256.077 503.42 255.717 498.74C255.477 493.94 254.997 489.98 254.277 486.86C253.557 483.62 252.477 482 251.037 482H276.237C274.797 482 273.717 483.56 272.997 486.68C272.277 489.8 271.737 493.7 271.377 498.38C271.137 502.94 270.957 507.92 270.837 513.32C270.837 518.6 270.837 523.4 270.837 527.72V593.42C270.837 597.26 271.737 600.32 273.537 602.6C275.337 604.88 278.937 606.14 284.337 606.38H294.597C303.597 606.38 311.337 605.84 317.817 604.76C324.297 603.56 330.057 601.76 335.097 599.36V608Z" fill="black"/>
<path d="M193.437 561.56C193.437 565.88 193.437 570.74 193.437 576.14C193.557 581.54 193.737 586.64 193.977 591.44C194.337 596.12 194.877 600.08 195.597 603.32C196.317 606.44 197.397 608 198.837 608H173.637C175.077 608 176.157 606.44 176.877 603.32C177.597 600.2 178.077 596.36 178.317 591.8C178.677 587.12 178.857 582.14 178.857 576.86C178.977 571.46 179.037 566.6 179.037 562.28V527.72C179.037 523.4 178.977 518.6 178.857 513.32C178.857 507.92 178.677 502.94 178.317 498.38C178.077 493.7 177.597 489.8 176.877 486.68C176.157 483.56 175.077 482 173.637 482H198.837C197.397 482 196.317 483.62 195.597 486.86C194.877 489.98 194.337 493.94 193.977 498.74C193.737 503.42 193.557 508.46 193.437 513.86C193.437 519.26 193.437 524.12 193.437 528.44V561.56Z" fill="black"/>
<path d="M119.34 588.92C111.06 596.24 102.3 601.64 93.06 605.12C83.94 608.48 74.88 610.16 65.88 610.16C57.12 610.16 48.78 608.66 40.86 605.66C32.94 602.66 25.92 598.34 19.8 592.7C13.8 586.94 9 580.04 5.4 572C1.8 563.96 0 554.9 0 544.82C0 533.78 1.86 524.18 5.58 516.02C9.42 507.74 14.46 500.9 20.7 495.5C27.06 489.98 34.32 485.9 42.48 483.26C50.76 480.5 59.28 479.12 68.04 479.12C75.6 479.12 83.1 480.14 90.54 482.18C97.98 484.1 105.06 486.98 111.78 490.82L104.76 501.8C98.88 495.32 92.34 490.4 85.14 487.04C77.94 483.56 70.74 481.82 63.54 481.82C54.18 481.82 46.32 483.62 39.96 487.22C33.6 490.82 28.5 495.62 24.66 501.62C20.94 507.5 18.42 514.22 17.1 521.78C15.78 529.34 15.54 537.08 16.38 545C17.34 552.8 19.26 560.48 22.14 568.04C25.02 575.6 28.8 582.38 33.48 588.38C38.16 594.26 43.62 599 49.86 602.6C56.22 606.2 63.18 608 70.74 608C75.3 608 79.68 607.28 83.88 605.84C88.08 604.4 91.74 602.42 94.86 599.9C98.1 597.26 100.62 594.08 102.42 590.36C104.34 586.52 105.3 582.26 105.3 577.58V564.26C105.3 561.74 105.18 559.52 104.94 557.6C104.82 555.56 104.22 553.88 103.14 552.56C102.18 551.12 100.68 550.04 98.64 549.32C96.72 548.48 93.96 548.06 90.36 548.06H80.28V546.44H121.32C120.24 552.68 119.64 559.16 119.52 565.88C119.4 572.48 119.34 580.16 119.34 588.92Z" fill="black"/>
<path d="M507.169 714.36C503.425 714.36 499.873 713.736 496.513 712.488C493.201 711.192 490.633 709.536 488.809 707.52L490.465 704.784C492.193 706.56 494.545 708.072 497.521 709.32C500.545 710.52 503.737 711.12 507.097 711.12C510.457 711.12 513.193 710.688 515.305 709.824C517.465 708.912 519.049 707.712 520.057 706.224C521.113 704.736 521.641 703.08 521.641 701.256C521.641 699.096 521.065 697.368 519.913 696.072C518.761 694.776 517.249 693.744 515.377 692.976C513.505 692.208 511.465 691.56 509.257 691.032C507.049 690.504 504.817 689.952 502.561 689.376C500.305 688.752 498.241 687.96 496.369 687C494.497 686.04 492.985 684.744 491.833 683.112C490.729 681.432 490.177 679.272 490.177 676.632C490.177 674.232 490.801 672.024 492.049 670.008C493.297 667.992 495.241 666.36 497.881 665.112C500.521 663.864 503.905 663.24 508.033 663.24C510.817 663.24 513.553 663.648 516.241 664.464C518.977 665.28 521.305 666.384 523.225 667.776L521.857 670.728C519.745 669.288 517.465 668.232 515.017 667.56C512.617 666.84 510.289 666.48 508.033 666.48C504.817 666.48 502.153 666.936 500.041 667.848C497.929 668.76 496.369 669.984 495.361 671.52C494.353 673.008 493.849 674.688 493.849 676.56C493.849 678.72 494.401 680.448 495.505 681.744C496.657 683.04 498.169 684.072 500.041 684.84C501.913 685.608 503.977 686.256 506.233 686.784C508.489 687.312 510.721 687.888 512.929 688.512C515.137 689.088 517.177 689.856 519.049 690.816C520.921 691.776 522.433 693.072 523.585 694.704C524.737 696.336 525.313 698.448 525.313 701.04C525.313 703.392 524.665 705.6 523.369 707.664C522.073 709.68 520.081 711.312 517.393 712.56C514.753 713.76 511.345 714.36 507.169 714.36Z" fill="black"/>
<path d="M388.652 714L411.836 663.6H415.508L438.692 714H434.732L412.844 665.904H414.428L392.612 714H388.652ZM397.148 699.816L398.372 696.72H428.54L429.764 699.816H397.148Z" fill="black"/>
<path d="M321.04 714V695.712L321.904 698.088L300.736 663.6H304.768L323.992 694.92H321.976L341.2 663.6H345.016L323.848 698.088L324.712 695.712V714H321.04Z" fill="black"/>
<path d="M226.315 714.36C222.571 714.36 219.091 713.736 215.875 712.488C212.707 711.192 209.923 709.392 207.523 707.088C205.171 704.736 203.347 702.024 202.051 698.952C200.755 695.832 200.107 692.448 200.107 688.8C200.107 685.152 200.755 681.792 202.051 678.72C203.347 675.6 205.171 672.888 207.523 670.584C209.923 668.232 212.707 666.432 215.875 665.184C219.091 663.888 222.571 663.24 226.315 663.24C230.059 663.24 233.515 663.888 236.683 665.184C239.899 666.432 242.683 668.208 245.035 670.512C247.387 672.816 249.211 675.528 250.507 678.648C251.851 681.72 252.523 685.104 252.523 688.8C252.523 692.496 251.851 695.904 250.507 699.024C249.211 702.096 247.387 704.784 245.035 707.088C242.683 709.392 239.899 711.192 236.683 712.488C233.515 713.736 230.059 714.36 226.315 714.36ZM226.315 710.976C229.531 710.976 232.507 710.424 235.243 709.32C237.979 708.216 240.355 706.656 242.371 704.64C244.387 702.624 245.947 700.272 247.051 697.584C248.203 694.896 248.779 691.968 248.779 688.8C248.779 685.584 248.203 682.656 247.051 680.016C245.947 677.328 244.387 674.976 242.371 672.96C240.355 670.944 237.979 669.384 235.243 668.28C232.507 667.176 229.531 666.624 226.315 666.624C223.099 666.624 220.123 667.176 217.387 668.28C214.651 669.384 212.251 670.944 210.187 672.96C208.171 674.976 206.587 677.328 205.435 680.016C204.331 682.656 203.779 685.584 203.779 688.8C203.779 691.968 204.331 694.896 205.435 697.584C206.587 700.272 208.171 702.624 210.187 704.64C212.251 706.656 214.651 708.216 217.387 709.32C220.123 710.424 223.099 710.976 226.315 710.976Z" fill="black"/>
<path d="M128.02 714.36C125.284 714.36 122.716 713.736 120.316 712.488C117.964 711.192 116.068 709.416 114.628 707.16L116.86 704.712C118.252 706.776 119.884 708.36 121.756 709.464C123.676 710.52 125.764 711.048 128.02 711.048C134.692 711.048 138.028 707.088 138.028 699.168V666.912H119.452V663.6H141.7V699.168C141.7 704.208 140.548 708 138.244 710.544C135.94 713.088 132.532 714.36 128.02 714.36Z" fill="black"/>
</svg>
