<svg width="644" height="132" viewBox="0 0 644 132" fill="none" xmlns="http://www.w3.org/2000/svg">
<path d="M543.002 108.72C540.842 114.36 539.162 119.16 537.962 123.12C536.882 127.08 536.942 129.06 538.142 129.06H529.502C530.222 129.06 531.002 128.46 531.842 127.26C532.682 126.06 533.582 124.5 534.542 122.58C535.502 120.54 536.462 118.32 537.422 115.92C538.502 113.4 539.582 110.88 540.662 108.36L583.502 0H584.762L628.682 107.1C629.762 109.86 630.902 112.56 632.102 115.2C633.302 117.84 634.502 120.18 635.702 122.22C637.022 124.26 638.282 125.94 639.482 127.26C640.682 128.46 641.882 129.06 643.082 129.06H615.002C616.322 129.06 617.042 128.28 617.162 126.72C617.402 125.04 617.222 123 616.622 120.6C616.142 118.2 615.362 115.56 614.282 112.68C613.322 109.8 612.362 107.1 611.402 104.58L605.642 90H550.202L543.002 108.72ZM550.922 88.38H604.922L577.562 19.62L550.922 88.38Z" fill="black"/>
<path d="M431.512 3.06C441.232 3.06 449.752 4.86 457.072 8.46C464.392 12.06 470.452 16.8 475.252 22.68C480.172 28.56 483.832 35.28 486.232 42.84C488.752 50.4 490.012 58.14 490.012 66.06C490.012 73.86 488.812 81.54 486.412 89.1C484.012 96.54 480.352 103.26 475.432 109.26C470.632 115.14 464.572 119.94 457.252 123.66C450.052 127.26 441.592 129.06 431.872 129.06H383.632C385.072 129.06 386.152 127.5 386.872 124.38C387.592 121.14 388.072 117.18 388.312 112.5C388.672 107.7 388.852 102.6 388.852 97.2C388.852 91.8 388.852 86.94 388.852 82.62V49.5C388.852 45.18 388.852 40.32 388.852 34.92C388.852 29.52 388.672 24.48 388.312 19.8C388.072 15 387.592 11.04 386.872 7.92C386.152 4.68 385.072 3.06 383.632 3.06H431.512ZM403.432 114.48C403.432 116.4 403.492 118.2 403.612 119.88C403.732 121.44 404.092 122.76 404.692 123.84C405.412 124.92 406.432 125.76 407.752 126.36C409.192 126.96 411.232 127.32 413.872 127.44H431.692C441.292 127.44 449.272 124.44 455.632 118.44C461.992 112.32 466.732 104.7 469.852 95.58C473.092 86.46 474.712 76.62 474.712 66.06C474.712 55.5 473.092 45.66 469.852 36.54C466.612 27.42 461.812 19.86 455.452 13.86C449.092 7.74 441.112 4.68 431.512 4.68H403.432V114.48Z" fill="black"/>
<path d="M335.097 129.06H251.037C252.477 129.06 253.557 127.5 254.277 124.38C254.997 121.14 255.477 117.18 255.717 112.5C256.077 107.7 256.257 102.6 256.257 97.2C256.257 91.8 256.257 86.94 256.257 82.62V49.5C256.257 45.18 256.257 40.32 256.257 34.92C256.257 29.52 256.077 24.48 255.717 19.8C255.477 15 254.997 11.04 254.277 7.92C253.557 4.68 252.477 3.06 251.037 3.06H276.237C274.797 3.06 273.717 4.62 272.997 7.74C272.277 10.86 271.737 14.76 271.377 19.44C271.137 24 270.957 28.98 270.837 34.38C270.837 39.66 270.837 44.46 270.837 48.78V114.48C270.837 118.32 271.737 121.38 273.537 123.66C275.337 125.94 278.937 127.2 284.337 127.44H294.597C303.597 127.44 311.337 126.9 317.817 125.82C324.297 124.62 330.057 122.82 335.097 120.42V129.06Z" fill="black"/>
<path d="M193.437 82.62C193.437 86.94 193.437 91.8 193.437 97.2C193.557 102.6 193.737 107.7 193.977 112.5C194.337 117.18 194.877 121.14 195.597 124.38C196.317 127.5 197.397 129.06 198.837 129.06H173.637C175.077 129.06 176.157 127.5 176.877 124.38C177.597 121.26 178.077 117.42 178.317 112.86C178.677 108.18 178.857 103.2 178.857 97.92C178.977 92.52 179.037 87.66 179.037 83.34V48.78C179.037 44.46 178.977 39.66 178.857 34.38C178.857 28.98 178.677 24 178.317 19.44C178.077 14.76 177.597 10.86 176.877 7.74C176.157 4.62 175.077 3.06 173.637 3.06H198.837C197.397 3.06 196.317 4.68 195.597 7.92C194.877 11.04 194.337 15 193.977 19.8C193.737 24.48 193.557 29.52 193.437 34.92C193.437 40.32 193.437 45.18 193.437 49.5V82.62Z" fill="black"/>
<path d="M119.34 109.98C111.06 117.3 102.3 122.7 93.06 126.18C83.94 129.54 74.88 131.22 65.88 131.22C57.12 131.22 48.78 129.72 40.86 126.72C32.94 123.72 25.92 119.4 19.8 113.76C13.8 108 9 101.1 5.4 93.06C1.8 85.02 0 75.96 0 65.88C0 54.84 1.86 45.24 5.58 37.08C9.42 28.8 14.46 21.96 20.7 16.56C27.06 11.04 34.32 6.96 42.48 4.31999C50.76 1.55999 59.28 0.179993 68.04 0.179993C75.6 0.179993 83.1 1.19999 90.54 3.23998C97.98 5.15999 105.06 8.03999 111.78 11.88L104.76 22.86C98.88 16.38 92.34 11.46 85.14 8.09999C77.94 4.61999 70.74 2.87999 63.54 2.87999C54.18 2.87999 46.32 4.67999 39.96 8.28C33.6 11.88 28.5 16.68 24.66 22.68C20.94 28.56 18.42 35.28 17.1 42.84C15.78 50.4 15.54 58.14 16.38 66.06C17.34 73.86 19.26 81.54 22.14 89.1C25.02 96.66 28.8 103.44 33.48 109.44C38.16 115.32 43.62 120.06 49.86 123.66C56.22 127.26 63.18 129.06 70.74 129.06C75.3 129.06 79.68 128.34 83.88 126.9C88.08 125.46 91.74 123.48 94.86 120.96C98.1 118.32 100.62 115.14 102.42 111.42C104.34 107.58 105.3 103.32 105.3 98.64V85.32C105.3 82.8 105.18 80.58 104.94 78.66C104.82 76.62 104.22 74.94 103.14 73.62C102.18 72.18 100.68 71.1 98.64 70.38C96.72 69.54 93.96 69.12 90.36 69.12H80.28V67.5H121.32C120.24 73.74 119.64 80.22 119.52 86.94C119.4 93.54 119.34 101.22 119.34 109.98Z" fill="black"/>
</svg>
