<svg width="644" height="236" viewBox="0 0 644 236" fill="none" xmlns="http://www.w3.org/2000/svg">
<path d="M543.002 108.72C540.842 114.36 539.162 119.16 537.962 123.12C536.882 127.08 536.942 129.06 538.142 129.06H529.502C530.222 129.06 531.002 128.46 531.842 127.26C532.682 126.06 533.582 124.5 534.542 122.58C535.502 120.54 536.462 118.32 537.422 115.92C538.502 113.4 539.582 110.88 540.662 108.36L583.502 0H584.762L628.682 107.1C629.762 109.86 630.902 112.56 632.102 115.2C633.302 117.84 634.502 120.18 635.702 122.22C637.022 124.26 638.282 125.94 639.482 127.26C640.682 128.46 641.882 129.06 643.082 129.06H615.002C616.322 129.06 617.042 128.28 617.162 126.72C617.402 125.04 617.222 123 616.622 120.6C616.142 118.2 615.362 115.56 614.282 112.68C613.322 109.8 612.362 107.1 611.402 104.58L605.642 90H550.202L543.002 108.72ZM550.922 88.38H604.922L577.562 19.62L550.922 88.38Z" fill="black"/>
<path d="M431.512 3.06C441.232 3.06 449.752 4.86 457.072 8.46C464.392 12.06 470.452 16.8 475.252 22.68C480.172 28.56 483.832 35.28 486.232 42.84C488.752 50.4 490.012 58.14 490.012 66.06C490.012 73.86 488.812 81.54 486.412 89.1C484.012 96.54 480.352 103.26 475.432 109.26C470.632 115.14 464.572 119.94 457.252 123.66C450.052 127.26 441.592 129.06 431.872 129.06H383.632C385.072 129.06 386.152 127.5 386.872 124.38C387.592 121.14 388.072 117.18 388.312 112.5C388.672 107.7 388.852 102.6 388.852 97.2C388.852 91.8 388.852 86.94 388.852 82.62V49.5C388.852 45.18 388.852 40.32 388.852 34.92C388.852 29.52 388.672 24.48 388.312 19.8C388.072 15 387.592 11.04 386.872 7.92C386.152 4.68 385.072 3.06 383.632 3.06H431.512ZM403.432 114.48C403.432 116.4 403.492 118.2 403.612 119.88C403.732 121.44 404.092 122.76 404.692 123.84C405.412 124.92 406.432 125.76 407.752 126.36C409.192 126.96 411.232 127.32 413.872 127.44H431.692C441.292 127.44 449.272 124.44 455.632 118.44C461.992 112.32 466.732 104.7 469.852 95.58C473.092 86.46 474.712 76.62 474.712 66.06C474.712 55.5 473.092 45.66 469.852 36.54C466.612 27.42 461.812 19.86 455.452 13.86C449.092 7.74 441.112 4.68 431.512 4.68H403.432V114.48Z" fill="black"/>
<path d="M335.097 129.06H251.037C252.477 129.06 253.557 127.5 254.277 124.38C254.997 121.14 255.477 117.18 255.717 112.5C256.077 107.7 256.257 102.6 256.257 97.2C256.257 91.8 256.257 86.94 256.257 82.62V49.5C256.257 45.18 256.257 40.32 256.257 34.92C256.257 29.52 256.077 24.48 255.717 19.8C255.477 15 254.997 11.04 254.277 7.92C253.557 4.68 252.477 3.06 251.037 3.06H276.237C274.797 3.06 273.717 4.62 272.997 7.74C272.277 10.86 271.737 14.76 271.377 19.44C271.137 24 270.957 28.98 270.837 34.38C270.837 39.66 270.837 44.46 270.837 48.78V114.48C270.837 118.32 271.737 121.38 273.537 123.66C275.337 125.94 278.937 127.2 284.337 127.44H294.597C303.597 127.44 311.337 126.9 317.817 125.82C324.297 124.62 330.057 122.82 335.097 120.42V129.06Z" fill="black"/>
<path d="M193.437 82.62C193.437 86.94 193.437 91.8 193.437 97.2C193.557 102.6 193.737 107.7 193.977 112.5C194.337 117.18 194.877 121.14 195.597 124.38C196.317 127.5 197.397 129.06 198.837 129.06H173.637C175.077 129.06 176.157 127.5 176.877 124.38C177.597 121.26 178.077 117.42 178.317 112.86C178.677 108.18 178.857 103.2 178.857 97.92C178.977 92.52 179.037 87.66 179.037 83.34V48.78C179.037 44.46 178.977 39.66 178.857 34.38C178.857 28.98 178.677 24 178.317 19.44C178.077 14.76 177.597 10.86 176.877 7.74C176.157 4.62 175.077 3.06 173.637 3.06H198.837C197.397 3.06 196.317 4.68 195.597 7.92C194.877 11.04 194.337 15 193.977 19.8C193.737 24.48 193.557 29.52 193.437 34.92C193.437 40.32 193.437 45.18 193.437 49.5V82.62Z" fill="black"/>
<path d="M119.34 109.98C111.06 117.3 102.3 122.7 93.06 126.18C83.94 129.54 74.88 131.22 65.88 131.22C57.12 131.22 48.78 129.72 40.86 126.72C32.94 123.72 25.92 119.4 19.8 113.76C13.8 108 9 101.1 5.4 93.06C1.8 85.02 0 75.96 0 65.88C0 54.84 1.86 45.24 5.58 37.08C9.42 28.8 14.46 21.96 20.7 16.56C27.06 11.04 34.32 6.96 42.48 4.31999C50.76 1.55999 59.28 0.179993 68.04 0.179993C75.6 0.179993 83.1 1.19999 90.54 3.23998C97.98 5.15999 105.06 8.03999 111.78 11.88L104.76 22.86C98.88 16.38 92.34 11.46 85.14 8.09999C77.94 4.61999 70.74 2.87999 63.54 2.87999C54.18 2.87999 46.32 4.67999 39.96 8.28C33.6 11.88 28.5 16.68 24.66 22.68C20.94 28.56 18.42 35.28 17.1 42.84C15.78 50.4 15.54 58.14 16.38 66.06C17.34 73.86 19.26 81.54 22.14 89.1C25.02 96.66 28.8 103.44 33.48 109.44C38.16 115.32 43.62 120.06 49.86 123.66C56.22 127.26 63.18 129.06 70.74 129.06C75.3 129.06 79.68 128.34 83.88 126.9C88.08 125.46 91.74 123.48 94.86 120.96C98.1 118.32 100.62 115.14 102.42 111.42C104.34 107.58 105.3 103.32 105.3 98.64V85.32C105.3 82.8 105.18 80.58 104.94 78.66C104.82 76.62 104.22 74.94 103.14 73.62C102.18 72.18 100.68 71.1 98.64 70.38C96.72 69.54 93.96 69.12 90.36 69.12H80.28V67.5H121.32C120.24 73.74 119.64 80.22 119.52 86.94C119.4 93.54 119.34 101.22 119.34 109.98Z" fill="black"/>
<path d="M507.169 235.42C503.425 235.42 499.873 234.796 496.513 233.548C493.201 232.252 490.633 230.596 488.809 228.58L490.465 225.844C492.193 227.62 494.545 229.132 497.521 230.38C500.545 231.58 503.737 232.18 507.097 232.18C510.457 232.18 513.193 231.748 515.305 230.884C517.465 229.972 519.049 228.772 520.057 227.284C521.113 225.796 521.641 224.14 521.641 222.316C521.641 220.156 521.065 218.428 519.913 217.132C518.761 215.836 517.249 214.804 515.377 214.036C513.505 213.268 511.465 212.62 509.257 212.092C507.049 211.564 504.817 211.012 502.561 210.436C500.305 209.812 498.241 209.02 496.369 208.06C494.497 207.1 492.985 205.804 491.833 204.172C490.729 202.492 490.177 200.332 490.177 197.692C490.177 195.292 490.801 193.084 492.049 191.068C493.297 189.052 495.241 187.42 497.881 186.172C500.521 184.924 503.905 184.3 508.033 184.3C510.817 184.3 513.553 184.708 516.241 185.524C518.977 186.34 521.305 187.444 523.225 188.836L521.857 191.788C519.745 190.348 517.465 189.292 515.017 188.62C512.617 187.9 510.289 187.54 508.033 187.54C504.817 187.54 502.153 187.996 500.041 188.908C497.929 189.82 496.369 191.044 495.361 192.58C494.353 194.068 493.849 195.748 493.849 197.62C493.849 199.78 494.401 201.508 495.505 202.804C496.657 204.1 498.169 205.132 500.041 205.9C501.913 206.668 503.977 207.316 506.233 207.844C508.489 208.372 510.721 208.948 512.929 209.572C515.137 210.148 517.177 210.916 519.049 211.876C520.921 212.836 522.433 214.132 523.585 215.764C524.737 217.396 525.313 219.508 525.313 222.1C525.313 224.452 524.665 226.66 523.369 228.724C522.073 230.74 520.081 232.372 517.393 233.62C514.753 234.82 511.345 235.42 507.169 235.42Z" fill="black"/>
<path d="M388.651 235.06L411.835 184.66H415.507L438.691 235.06H434.731L412.843 186.964H414.427L392.611 235.06H388.651ZM397.147 220.876L398.371 217.78H428.539L429.763 220.876H397.147Z" fill="black"/>
<path d="M321.039 235.06V216.772L321.903 219.148L300.735 184.66H304.767L323.991 215.98H321.975L341.199 184.66H345.015L323.847 219.148L324.711 216.772V235.06H321.039Z" fill="black"/>
<path d="M226.315 235.42C222.571 235.42 219.091 234.796 215.875 233.548C212.707 232.252 209.923 230.452 207.523 228.148C205.171 225.796 203.347 223.084 202.051 220.012C200.755 216.892 200.107 213.508 200.107 209.86C200.107 206.212 200.755 202.852 202.051 199.78C203.347 196.66 205.171 193.948 207.523 191.644C209.923 189.292 212.707 187.492 215.875 186.244C219.091 184.948 222.571 184.3 226.315 184.3C230.059 184.3 233.515 184.948 236.683 186.244C239.899 187.492 242.683 189.268 245.035 191.572C247.387 193.876 249.211 196.588 250.507 199.708C251.851 202.78 252.523 206.164 252.523 209.86C252.523 213.556 251.851 216.964 250.507 220.084C249.211 223.156 247.387 225.844 245.035 228.148C242.683 230.452 239.899 232.252 236.683 233.548C233.515 234.796 230.059 235.42 226.315 235.42ZM226.315 232.036C229.531 232.036 232.507 231.484 235.243 230.38C237.979 229.276 240.355 227.716 242.371 225.7C244.387 223.684 245.947 221.332 247.051 218.644C248.203 215.956 248.779 213.028 248.779 209.86C248.779 206.644 248.203 203.716 247.051 201.076C245.947 198.388 244.387 196.036 242.371 194.02C240.355 192.004 237.979 190.444 235.243 189.34C232.507 188.236 229.531 187.684 226.315 187.684C223.099 187.684 220.123 188.236 217.387 189.34C214.651 190.444 212.251 192.004 210.187 194.02C208.171 196.036 206.587 198.388 205.435 201.076C204.331 203.716 203.779 206.644 203.779 209.86C203.779 213.028 204.331 215.956 205.435 218.644C206.587 221.332 208.171 223.684 210.187 225.7C212.251 227.716 214.651 229.276 217.387 230.38C220.123 231.484 223.099 232.036 226.315 232.036Z" fill="black"/>
<path d="M128.02 235.42C125.284 235.42 122.716 234.796 120.316 233.548C117.964 232.252 116.068 230.476 114.628 228.22L116.86 225.772C118.252 227.836 119.884 229.42 121.756 230.524C123.676 231.58 125.764 232.108 128.02 232.108C134.692 232.108 138.028 228.148 138.028 220.228V187.972H119.452V184.66H141.7V220.228C141.7 225.268 140.548 229.06 138.244 231.604C135.94 234.148 132.532 235.42 128.02 235.42Z" fill="black"/>
</svg>
