<svg width="661" height="648" viewBox="0 0 661 648" fill="none" xmlns="http://www.w3.org/2000/svg">
<path d="M334.655 166.285C334.452 139.486 331.889 113.34 330.913 87.1085C329.131 126.435 325.854 165.692 326.958 205.092C324.365 205.522 323.954 203.523 323.111 202.283C305.573 176.5 293.507 148.524 290.589 117.241C287.559 84.7577 294.991 54.4927 311.514 26.4013C316.368 18.1479 321.94 10.3901 327.413 2.55456C329.748 -0.788571 331.696 -0.852593 334.181 2.37567C369.946 48.8352 382.235 99.4306 361.828 156.059C356.89 169.761 351.574 183.212 343.931 195.646C341.86 199.014 340.095 202.665 335.65 205.916C335.124 192.242 335.949 179.481 334.655 166.285Z" fill="#E88395"/>
<path d="M372.883 225.479C364.962 224.587 357.841 222.656 349.758 219.382C374.748 208.611 399.568 200.794 422.376 187.732C416.073 189.362 409.735 190.866 403.479 192.656C396.944 194.525 390.469 196.613 384.001 198.706C377.533 200.8 371.173 203.261 364.639 205.116C358.17 206.952 352.057 210.084 344.979 210.954C345.18 209.429 346.051 208.094 346.284 207.773C362.975 184.703 379.506 164.217 405.821 151.174C440.761 133.856 476.474 133.319 512.892 145.67C514.11 146.083 515.293 146.598 516.504 147.034C528.161 151.228 528.156 151.222 521.148 161.177C500.595 190.376 474.189 211.754 439.38 221.517C417.725 227.591 395.691 229.532 372.883 225.479Z" fill="#C5AF9F"/>
<path d="M289.052 225.479C296.973 224.587 304.094 222.656 312.177 219.382C287.187 208.611 262.367 200.794 239.559 187.732C245.862 189.362 252.2 190.866 258.456 192.656C264.991 194.525 271.466 196.613 277.934 198.706C284.402 200.8 290.762 203.261 297.296 205.116C303.765 206.952 309.878 210.084 316.956 210.954C316.956 210.096 315.608 208.094 315.376 207.773C298.684 184.703 282.429 164.217 256.114 151.174C221.174 133.856 185.461 133.319 149.043 145.67C147.825 146.083 146.642 146.598 145.431 147.034C133.774 151.228 133.779 151.222 140.786 161.177C161.34 190.376 187.746 211.754 222.555 221.517C244.21 227.591 266.244 229.532 289.052 225.479Z" fill="#C5AF9F"/>
<path d="M397.835 352.774C359.02 327.952 327.539 268.498 336.827 235.597C357.975 258.944 377.481 282.69 399.499 304.145C380.966 279.427 363.671 253.804 343.663 229.04C349.523 227.748 353.765 229.269 357.803 230.365C390.097 239.132 417.455 254.999 434.85 284.9C446.072 304.189 451.656 325.115 453.076 347.25C453.464 353.295 453.619 359.356 453.805 365.412C453.994 371.575 452.677 372.804 446.801 371.618C429.555 368.137 413.196 362.293 397.835 352.774Z" fill="#C5AF9F"/>
<path d="M252.008 256.977C271.508 240.445 293.343 230.415 318.814 228.437C316.075 236.03 310.96 241.993 305.703 246.978C309.305 240.889 310.58 238.546 312.377 233.963C261.561 239.582 209.248 309.349 217.564 361.13C225.292 359.93 232.671 357.45 240.113 355.203C282.887 342.285 305.825 311.215 318.13 270.275C320.523 262.311 322.037 254.247 322.919 246.005C323.231 243.09 323.58 240.54 319.541 240.219C320.87 237.436 322.574 235.994 324.981 235.576C326.646 236.214 326.801 237.563 326.735 238.824C324.833 274.741 315.241 307.517 288.66 333.589C271.621 350.301 250.97 360.135 228.331 366.408C223.731 367.682 219.053 368.674 214.426 369.855C211.193 370.681 209.588 369.777 209.607 366.161C209.804 328.81 216.997 293.807 243.355 265.226C245.962 262.398 248.916 259.889 252.008 256.977Z" fill="#C5AF9F"/>
<path d="M280.604 288.906C270.67 301.049 266.254 307.12 254.112 314.847C276.189 286.698 281.708 276.212 304.889 248.064C291.643 274.556 288.883 277.868 280.604 288.906Z" fill="#C5AF9F"/>
<path d="M553.85 494.56C553.85 498.88 553.85 503.74 553.85 509.14C553.97 514.54 554.15 519.64 554.39 524.44C554.75 529.12 555.23 533.08 555.83 536.32C556.55 539.44 557.51 541 558.71 541H546.47C547.67 541 548.57 539.44 549.17 536.32C549.89 533.08 550.37 529.12 550.61 524.44C550.97 519.64 551.15 514.54 551.15 509.14C551.27 503.74 551.33 498.88 551.33 494.56V461.44C551.33 457.12 551.33 452.26 551.33 446.86C551.33 441.46 551.15 436.42 550.79 431.74C550.55 426.94 550.07 422.98 549.35 419.86C548.63 416.62 547.55 415 546.11 415H563.21L604.79 500.14L643.85 415H660.95C659.63 415 658.61 416.62 657.89 419.86C657.17 422.98 656.63 426.94 656.27 431.74C656.03 436.42 655.85 441.46 655.73 446.86C655.73 452.26 655.73 457.12 655.73 461.44V494.56C655.73 498.88 655.73 503.74 655.73 509.14C655.85 514.54 656.03 519.64 656.27 524.44C656.63 529.12 657.17 533.08 657.89 536.32C658.61 539.44 659.63 541 660.95 541H635.93C637.37 541 638.45 539.44 639.17 536.32C639.89 533.08 640.37 529.12 640.61 524.44C640.97 519.64 641.15 514.54 641.15 509.14C641.27 503.74 641.33 498.88 641.33 494.56V426.7L598.67 518.5H597.23L553.85 428.5V494.56Z" fill="black"/>
<path d="M493.883 541H409.823C411.263 541 412.344 539.44 413.064 536.32C413.784 533.08 414.263 529.12 414.503 524.44C414.863 519.64 415.043 514.54 415.043 509.14C415.043 503.74 415.043 498.88 415.043 494.56V461.44C415.043 457.12 415.043 452.26 415.043 446.86C415.043 441.46 414.863 436.42 414.503 431.74C414.263 426.94 413.784 422.98 413.064 419.86C412.344 416.62 411.263 415 409.823 415H489.383V423.46C479.783 418.9 466.163 416.62 448.523 416.62H429.624V473.86H441.863C447.623 473.86 453.024 473.56 458.064 472.96C463.104 472.24 467.064 471.16 469.944 469.72V479.62C467.064 478.18 463.104 477.16 458.064 476.56C453.024 475.84 447.623 475.48 441.863 475.48H429.624V523.18C429.624 528.1 430.763 532 433.043 534.88C435.323 537.64 439.283 539.14 444.923 539.38H453.383H453.023C462.023 539.38 469.823 538.84 476.423 537.76C483.023 536.56 488.843 534.76 493.883 532.36V541Z" fill="black"/>
<path d="M361.017 415C360.297 415 359.517 415.6 358.677 416.8C357.837 418 356.937 419.56 355.977 421.48C355.017 423.4 353.997 425.62 352.917 428.14C351.957 430.66 350.937 433.18 349.857 435.7L307.197 544.24H305.937L261.837 436.96C260.757 434.2 259.617 431.5 258.417 428.86C257.217 426.22 256.017 423.88 254.817 421.84C253.617 419.8 252.417 418.18 251.217 416.98C250.017 415.66 248.817 415 247.617 415H275.517C274.197 415 273.417 415.84 273.177 417.52C273.057 419.08 273.237 421.06 273.717 423.46C274.317 425.86 275.097 428.5 276.057 431.38C277.137 434.26 278.157 436.96 279.117 439.48L312.957 524.44L347.517 435.34C349.797 429.7 351.477 424.9 352.557 420.94C353.637 416.98 353.577 415 352.377 415H361.017Z" fill="black"/>
<path d="M193.437 494.56C193.437 498.88 193.437 503.74 193.437 509.14C193.557 514.54 193.737 519.64 193.977 524.44C194.337 529.12 194.877 533.08 195.597 536.32C196.317 539.44 197.397 541 198.837 541H173.637C175.077 541 176.157 539.44 176.877 536.32C177.597 533.2 178.077 529.36 178.317 524.8C178.677 520.12 178.857 515.14 178.857 509.86C178.977 504.46 179.037 499.6 179.037 495.28V460.72C179.037 456.4 178.977 451.6 178.857 446.32C178.857 440.92 178.677 435.94 178.317 431.38C178.077 426.7 177.597 422.8 176.877 419.68C176.157 416.56 175.077 415 173.637 415H198.837C197.397 415 196.317 416.62 195.597 419.86C194.877 422.98 194.337 426.94 193.977 431.74C193.737 436.42 193.557 441.46 193.437 446.86C193.437 452.26 193.437 457.12 193.437 461.44V494.56Z" fill="black"/>
<path d="M119.34 521.92C111.06 529.24 102.3 534.64 93.06 538.12C83.94 541.48 74.88 543.16 65.88 543.16C57.12 543.16 48.78 541.66 40.86 538.66C32.94 535.66 25.92 531.34 19.8 525.7C13.8 519.94 9 513.04 5.4 505C1.8 496.96 0 487.9 0 477.82C0 466.78 1.86 457.18 5.58 449.02C9.42 440.74 14.46 433.9 20.7 428.5C27.06 422.98 34.32 418.9 42.48 416.26C50.76 413.5 59.28 412.12 68.04 412.12C75.6 412.12 83.1 413.14 90.54 415.18C97.98 417.1 105.06 419.98 111.78 423.82L104.76 434.8C98.88 428.32 92.34 423.4 85.14 420.04C77.94 416.56 70.74 414.82 63.54 414.82C54.18 414.82 46.32 416.62 39.96 420.22C33.6 423.82 28.5 428.62 24.66 434.62C20.94 440.5 18.42 447.22 17.1 454.78C15.78 462.34 15.54 470.08 16.38 478C17.34 485.8 19.26 493.48 22.14 501.04C25.02 508.6 28.8 515.38 33.48 521.38C38.16 527.26 43.62 532 49.86 535.6C56.22 539.2 63.18 541 70.74 541C75.3 541 79.68 540.28 83.88 538.84C88.08 537.4 91.74 535.42 94.86 532.9C98.1 530.26 100.62 527.08 102.42 523.36C104.34 519.52 105.3 515.26 105.3 510.58V497.26C105.3 494.74 105.18 492.52 104.94 490.6C104.82 488.56 104.22 486.88 103.14 485.56C102.18 484.12 100.68 483.04 98.64 482.32C96.72 481.48 93.96 481.06 90.36 481.06H80.28V479.44H121.32C120.24 485.68 119.64 492.16 119.52 498.88C119.4 505.48 119.34 513.16 119.34 521.92Z" fill="black"/>
<path d="M505.169 647.36C501.425 647.36 497.873 646.736 494.513 645.488C491.201 644.192 488.633 642.536 486.809 640.52L488.465 637.784C490.193 639.56 492.545 641.072 495.521 642.32C498.545 643.52 501.737 644.12 505.097 644.12C508.457 644.12 511.193 643.688 513.305 642.824C515.465 641.912 517.049 640.712 518.057 639.224C519.113 637.736 519.641 636.08 519.641 634.256C519.641 632.096 519.065 630.368 517.913 629.072C516.761 627.776 515.249 626.744 513.377 625.976C511.505 625.208 509.465 624.56 507.257 624.032C505.049 623.504 502.817 622.952 500.561 622.376C498.305 621.752 496.241 620.96 494.369 620C492.497 619.04 490.985 617.744 489.833 616.112C488.729 614.432 488.177 612.272 488.177 609.632C488.177 607.232 488.801 605.024 490.049 603.008C491.297 600.992 493.241 599.36 495.881 598.112C498.521 596.864 501.905 596.24 506.033 596.24C508.817 596.24 511.553 596.648 514.241 597.464C516.977 598.28 519.305 599.384 521.225 600.776L519.857 603.728C517.745 602.288 515.465 601.232 513.017 600.56C510.617 599.84 508.289 599.48 506.033 599.48C502.817 599.48 500.153 599.936 498.041 600.848C495.929 601.76 494.369 602.984 493.361 604.52C492.353 606.008 491.849 607.688 491.849 609.56C491.849 611.72 492.401 613.448 493.505 614.744C494.657 616.04 496.169 617.072 498.041 617.84C499.913 618.608 501.977 619.256 504.233 619.784C506.489 620.312 508.721 620.888 510.929 621.512C513.137 622.088 515.177 622.856 517.049 623.816C518.921 624.776 520.433 626.072 521.585 627.704C522.737 629.336 523.313 631.448 523.313 634.04C523.313 636.392 522.665 638.6 521.369 640.664C520.073 642.68 518.081 644.312 515.393 645.56C512.753 646.76 509.345 647.36 505.169 647.36Z" fill="black"/>
<path d="M386.651 647L409.836 596.6H413.508L436.691 647H432.732L410.844 598.904H412.427L390.612 647H386.651ZM395.147 632.816L396.371 629.72H426.539L427.764 632.816H395.147Z" fill="black"/>
<path d="M319.04 647V628.712L319.904 631.088L298.736 596.6H302.768L321.992 627.92H319.976L339.2 596.6H343.016L321.848 631.088L322.712 628.712V647H319.04Z" fill="black"/>
<path d="M224.315 647.36C220.571 647.36 217.091 646.736 213.875 645.488C210.707 644.192 207.923 642.392 205.523 640.088C203.171 637.736 201.347 635.024 200.051 631.952C198.755 628.832 198.107 625.448 198.107 621.8C198.107 618.152 198.755 614.792 200.051 611.72C201.347 608.6 203.171 605.888 205.523 603.584C207.923 601.232 210.707 599.432 213.875 598.184C217.091 596.888 220.571 596.24 224.315 596.24C228.059 596.24 231.515 596.888 234.683 598.184C237.899 599.432 240.683 601.208 243.035 603.512C245.387 605.816 247.211 608.528 248.507 611.648C249.851 614.72 250.523 618.104 250.523 621.8C250.523 625.496 249.851 628.904 248.507 632.024C247.211 635.096 245.387 637.784 243.035 640.088C240.683 642.392 237.899 644.192 234.683 645.488C231.515 646.736 228.059 647.36 224.315 647.36ZM224.315 643.976C227.531 643.976 230.507 643.424 233.243 642.32C235.979 641.216 238.355 639.656 240.371 637.64C242.387 635.624 243.947 633.272 245.051 630.584C246.203 627.896 246.779 624.968 246.779 621.8C246.779 618.584 246.203 615.656 245.051 613.016C243.947 610.328 242.387 607.976 240.371 605.96C238.355 603.944 235.979 602.384 233.243 601.28C230.507 600.176 227.531 599.624 224.315 599.624C221.099 599.624 218.123 600.176 215.387 601.28C212.651 602.384 210.251 603.944 208.187 605.96C206.171 607.976 204.587 610.328 203.435 613.016C202.331 615.656 201.779 618.584 201.779 621.8C201.779 624.968 202.331 627.896 203.435 630.584C204.587 633.272 206.171 635.624 208.187 637.64C210.251 639.656 212.651 641.216 215.387 642.32C218.123 643.424 221.099 643.976 224.315 643.976Z" fill="black"/>
<path d="M126.02 647.36C123.284 647.36 120.716 646.736 118.316 645.488C115.964 644.192 114.068 642.416 112.628 640.16L114.86 637.712C116.252 639.776 117.884 641.36 119.756 642.464C121.676 643.52 123.764 644.048 126.02 644.048C132.692 644.048 136.028 640.088 136.028 632.168V599.912H117.452V596.6H139.7V632.168C139.7 637.208 138.548 641 136.244 643.544C133.94 646.088 130.532 647.36 126.02 647.36Z" fill="black"/>
</svg>
