<svg width="661" height="236" viewBox="0 0 661 236" fill="none" xmlns="http://www.w3.org/2000/svg">
<path d="M553.85 82.44C553.85 86.76 553.85 91.62 553.85 97.02C553.97 102.42 554.15 107.52 554.39 112.32C554.75 117 555.23 120.96 555.83 124.2C556.55 127.32 557.51 128.88 558.71 128.88H546.47C547.67 128.88 548.57 127.32 549.17 124.2C549.89 120.96 550.37 117 550.61 112.32C550.97 107.52 551.15 102.42 551.15 97.02C551.27 91.62 551.33 86.76 551.33 82.44V49.32C551.33 45 551.33 40.14 551.33 34.74C551.33 29.34 551.15 24.3 550.79 19.62C550.55 14.82 550.07 10.86 549.35 7.74001C548.63 4.5 547.55 2.88 546.11 2.88H563.21L604.79 88.02L643.85 2.88H660.95C659.63 2.88 658.61 4.5 657.89 7.74001C657.17 10.86 656.63 14.82 656.27 19.62C656.03 24.3 655.85 29.34 655.73 34.74C655.73 40.14 655.73 45 655.73 49.32V82.44C655.73 86.76 655.73 91.62 655.73 97.02C655.85 102.42 656.03 107.52 656.27 112.32C656.63 117 657.17 120.96 657.89 124.2C658.61 127.32 659.63 128.88 660.95 128.88H635.93C637.37 128.88 638.45 127.32 639.17 124.2C639.89 120.96 640.37 117 640.61 112.32C640.97 107.52 641.15 102.42 641.15 97.02C641.27 91.62 641.33 86.76 641.33 82.44V14.58L598.67 106.38H597.23L553.85 16.38V82.44Z" fill="black"/>
<path d="M493.883 128.88H409.823C411.263 128.88 412.344 127.32 413.064 124.2C413.784 120.96 414.263 117 414.503 112.32C414.863 107.52 415.043 102.42 415.043 97.02C415.043 91.62 415.043 86.76 415.043 82.44V49.32C415.043 45 415.043 40.14 415.043 34.74C415.043 29.34 414.863 24.3 414.503 19.62C414.263 14.82 413.784 10.86 413.064 7.74001C412.344 4.5 411.263 2.88 409.823 2.88H489.383V11.34C479.783 6.78001 466.163 4.5 448.523 4.5H429.624V61.74H441.863C447.623 61.74 453.024 61.44 458.064 60.84C463.104 60.12 467.064 59.04 469.944 57.6V67.5C467.064 66.06 463.104 65.04 458.064 64.44C453.024 63.72 447.623 63.36 441.863 63.36H429.624V111.06C429.624 115.98 430.763 119.88 433.043 122.76C435.323 125.52 439.283 127.02 444.923 127.26H453.383H453.023C462.023 127.26 469.823 126.72 476.423 125.64C483.023 124.44 488.843 122.64 493.883 120.24V128.88Z" fill="black"/>
<path d="M361.017 2.88C360.297 2.88 359.517 3.48 358.677 4.68C357.837 5.88001 356.937 7.44001 355.977 9.36001C355.017 11.28 353.997 13.5 352.917 16.02C351.957 18.54 350.937 21.06 349.857 23.58L307.197 132.12H305.937L261.837 24.84C260.757 22.08 259.617 19.38 258.417 16.74C257.217 14.1 256.017 11.76 254.817 9.72C253.617 7.68001 252.417 6.06001 251.217 4.86001C250.017 3.54001 248.817 2.88 247.617 2.88H275.517C274.197 2.88 273.417 3.72001 273.177 5.40001C273.057 6.96001 273.237 8.94001 273.717 11.34C274.317 13.74 275.097 16.38 276.057 19.26C277.137 22.14 278.157 24.84 279.117 27.36L312.957 112.32L347.517 23.22C349.797 17.58 351.477 12.78 352.557 8.82C353.637 4.86 353.577 2.88 352.377 2.88H361.017Z" fill="black"/>
<path d="M193.437 82.44C193.437 86.76 193.437 91.62 193.437 97.02C193.557 102.42 193.737 107.52 193.977 112.32C194.337 117 194.877 120.96 195.597 124.2C196.317 127.32 197.397 128.88 198.837 128.88H173.637C175.077 128.88 176.157 127.32 176.877 124.2C177.597 121.08 178.077 117.24 178.317 112.68C178.677 108 178.857 103.02 178.857 97.74C178.977 92.34 179.037 87.48 179.037 83.16V48.6C179.037 44.28 178.977 39.48 178.857 34.2C178.857 28.8 178.677 23.82 178.317 19.26C178.077 14.58 177.597 10.68 176.877 7.56001C176.157 4.44001 175.077 2.88 173.637 2.88H198.837C197.397 2.88 196.317 4.5 195.597 7.74001C194.877 10.86 194.337 14.82 193.977 19.62C193.737 24.3 193.557 29.34 193.437 34.74C193.437 40.14 193.437 45 193.437 49.32V82.44Z" fill="black"/>
<path d="M119.34 109.8C111.06 117.12 102.3 122.52 93.06 126C83.94 129.36 74.88 131.04 65.88 131.04C57.12 131.04 48.78 129.54 40.86 126.54C32.94 123.54 25.92 119.22 19.8 113.58C13.8 107.82 9 100.92 5.4 92.88C1.8 84.84 0 75.78 0 65.7C0 54.66 1.86 45.06 5.58 36.9C9.42 28.62 14.46 21.78 20.7 16.38C27.06 10.86 34.32 6.78 42.48 4.14C50.76 1.38 59.28 0 68.04 0C75.6 0 83.1 1.02 90.54 3.05999C97.98 4.98 105.06 7.86 111.78 11.7L104.76 22.68C98.88 16.2 92.34 11.28 85.14 7.91999C77.94 4.43999 70.74 2.7 63.54 2.7C54.18 2.7 46.32 4.5 39.96 8.1C33.6 11.7 28.5 16.5 24.66 22.5C20.94 28.38 18.42 35.1 17.1 42.66C15.78 50.22 15.54 57.96 16.38 65.88C17.34 73.68 19.26 81.36 22.14 88.92C25.02 96.48 28.8 103.26 33.48 109.26C38.16 115.14 43.62 119.88 49.86 123.48C56.22 127.08 63.18 128.88 70.74 128.88C75.3 128.88 79.68 128.16 83.88 126.72C88.08 125.28 91.74 123.3 94.86 120.78C98.1 118.14 100.62 114.96 102.42 111.24C104.34 107.4 105.3 103.14 105.3 98.46V85.14C105.3 82.62 105.18 80.4 104.94 78.48C104.82 76.44 104.22 74.76 103.14 73.44C102.18 72 100.68 70.92 98.64 70.2C96.72 69.36 93.96 68.94 90.36 68.94H80.28V67.32H121.32C120.24 73.56 119.64 80.04 119.52 86.76C119.4 93.36 119.34 101.04 119.34 109.8Z" fill="black"/>
<path d="M505.169 235.24C501.425 235.24 497.873 234.616 494.513 233.368C491.201 232.072 488.633 230.416 486.809 228.4L488.465 225.664C490.193 227.44 492.545 228.952 495.521 230.2C498.545 231.4 501.737 232 505.097 232C508.457 232 511.193 231.568 513.305 230.704C515.465 229.792 517.049 228.592 518.057 227.104C519.113 225.616 519.641 223.96 519.641 222.136C519.641 219.976 519.065 218.248 517.913 216.952C516.761 215.656 515.249 214.624 513.377 213.856C511.505 213.088 509.465 212.44 507.257 211.912C505.049 211.384 502.817 210.832 500.561 210.256C498.305 209.632 496.241 208.84 494.369 207.88C492.497 206.92 490.985 205.624 489.833 203.992C488.729 202.312 488.177 200.152 488.177 197.512C488.177 195.112 488.801 192.904 490.049 190.888C491.297 188.872 493.241 187.24 495.881 185.992C498.521 184.744 501.905 184.12 506.033 184.12C508.817 184.12 511.553 184.528 514.241 185.344C516.977 186.16 519.305 187.264 521.225 188.656L519.857 191.608C517.745 190.168 515.465 189.112 513.017 188.44C510.617 187.72 508.289 187.36 506.033 187.36C502.817 187.36 500.153 187.816 498.041 188.728C495.929 189.64 494.369 190.864 493.361 192.4C492.353 193.888 491.849 195.568 491.849 197.44C491.849 199.6 492.401 201.328 493.505 202.624C494.657 203.92 496.169 204.952 498.041 205.72C499.913 206.488 501.977 207.136 504.233 207.664C506.489 208.192 508.721 208.768 510.929 209.392C513.137 209.968 515.177 210.736 517.049 211.696C518.921 212.656 520.433 213.952 521.585 215.584C522.737 217.216 523.313 219.328 523.313 221.92C523.313 224.272 522.665 226.48 521.369 228.544C520.073 230.56 518.081 232.192 515.393 233.44C512.753 234.64 509.345 235.24 505.169 235.24Z" fill="black"/>
<path d="M386.651 234.88L409.836 184.48H413.508L436.691 234.88H432.732L410.844 186.784H412.427L390.612 234.88H386.651ZM395.147 220.696L396.371 217.6H426.539L427.764 220.696H395.147Z" fill="black"/>
<path d="M319.04 234.88V216.592L319.904 218.968L298.736 184.48H302.768L321.992 215.8H319.976L339.2 184.48H343.016L321.848 218.968L322.712 216.592V234.88H319.04Z" fill="black"/>
<path d="M224.315 235.24C220.571 235.24 217.091 234.616 213.875 233.368C210.707 232.072 207.923 230.272 205.523 227.968C203.171 225.616 201.347 222.904 200.051 219.832C198.755 216.712 198.107 213.328 198.107 209.68C198.107 206.032 198.755 202.672 200.051 199.6C201.347 196.48 203.171 193.768 205.523 191.464C207.923 189.112 210.707 187.312 213.875 186.064C217.091 184.768 220.571 184.12 224.315 184.12C228.059 184.12 231.515 184.768 234.683 186.064C237.899 187.312 240.683 189.088 243.035 191.392C245.387 193.696 247.211 196.408 248.507 199.528C249.851 202.6 250.523 205.984 250.523 209.68C250.523 213.376 249.851 216.784 248.507 219.904C247.211 222.976 245.387 225.664 243.035 227.968C240.683 230.272 237.899 232.072 234.683 233.368C231.515 234.616 228.059 235.24 224.315 235.24ZM224.315 231.856C227.531 231.856 230.507 231.304 233.243 230.2C235.979 229.096 238.355 227.536 240.371 225.52C242.387 223.504 243.947 221.152 245.051 218.464C246.203 215.776 246.779 212.848 246.779 209.68C246.779 206.464 246.203 203.536 245.051 200.896C243.947 198.208 242.387 195.856 240.371 193.84C238.355 191.824 235.979 190.264 233.243 189.16C230.507 188.056 227.531 187.504 224.315 187.504C221.099 187.504 218.123 188.056 215.387 189.16C212.651 190.264 210.251 191.824 208.187 193.84C206.171 195.856 204.587 198.208 203.435 200.896C202.331 203.536 201.779 206.464 201.779 209.68C201.779 212.848 202.331 215.776 203.435 218.464C204.587 221.152 206.171 223.504 208.187 225.52C210.251 227.536 212.651 229.096 215.387 230.2C218.123 231.304 221.099 231.856 224.315 231.856Z" fill="black"/>
<path d="M126.02 235.24C123.284 235.24 120.716 234.616 118.316 233.368C115.964 232.072 114.068 230.296 112.628 228.04L114.86 225.592C116.252 227.656 117.884 229.24 119.756 230.344C121.676 231.4 123.764 231.928 126.02 231.928C132.692 231.928 136.028 227.968 136.028 220.048V187.792H117.452V184.48H139.7V220.048C139.7 225.088 138.548 228.88 136.244 231.424C133.94 233.968 130.532 235.24 126.02 235.24Z" fill="black"/>
</svg>
