<svg width="936" height="1011" viewBox="0 0 936 1011" fill="none" xmlns="http://www.w3.org/2000/svg">
<path d="M10.9577 612.769C6.37592 590.446 3.23895 568.458 1.5479 546.243C-0.39382 520.734 -0.426179 495.209 0.990182 469.71C2.94274 434.559 8.90013 399.995 17.7581 365.931C38.2088 287.285 74.0603 216.666 128.425 155.992C184.274 93.6617 251.714 48.6481 331.488 22.6252C370.298 9.96471 410.016 2.40314 450.902 0.491624C538.258 -3.59252 619.2 17.8887 694.99 60.5018C707.281 67.4127 719.097 75.13 730.639 83.236C732.529 84.5634 736.586 85.4365 734.34 88.9447C732.166 92.341 729.617 89.4592 727.59 88.0767C707.475 74.358 686.75 61.6875 664.873 50.9369C621.615 29.6796 576.145 15.045 528.398 9.09795C420.698 -4.31622 320.836 18.7763 229.614 77.4826C137.432 136.807 74.7196 219.529 37.8929 322.414C25.4559 357.16 16.5628 392.816 11.6065 429.28C6.3479 467.968 4.91127 506.848 8.21936 545.967C13.5033 608.451 28.3838 668.292 54.0481 725.477C67.9814 756.523 84.9786 785.819 104.452 813.697C106.348 816.411 108.797 818.942 103.944 823C57.2659 759.812 26.9246 689.806 10.9577 612.769Z" fill="#C5AF9F"/>
<path d="M52.6899 314.651C76.1199 255.07 108.964 201.93 152.609 155.721C179.877 126.852 211.198 102.974 245.028 82.2889C298.857 49.3752 357.227 29.0508 419.583 21.2594C494.965 11.8404 567.784 22.9751 637.699 52.8517C667.32 65.5097 695.119 81.4232 721.448 99.9587C723.869 101.663 723.865 101.67 725 104.914C722.61 106.266 721.174 104.307 719.642 103.221C674.302 71.0883 624.988 47.4446 571.021 34.0234C530.767 24.0123 489.944 19.8256 448.39 22.3729C360.437 27.7646 281.509 57.5239 211.005 109.996C145.329 158.876 97.7409 222.116 64.9625 296.891C47.0438 337.769 35.1656 380.432 28.0801 424.422C21.7086 463.979 20.7819 503.816 23.7043 543.742C29.2739 619.835 51.1686 691.016 88.2609 757.547C97.2329 773.64 107.148 789.16 118.139 803.97C119.366 805.624 121.496 807.103 120.518 809.904C116.797 810.592 115.912 807.414 114.523 805.541C91.7487 774.824 73.5283 741.515 58.5473 706.37C43.9747 672.182 33.4064 636.754 26.5126 600.276C19.3542 562.398 15.7013 524.088 17.4207 485.565C20.037 426.944 31.0705 369.902 52.6899 314.651Z" fill="#C5AF9F"/>
<path d="M923.528 581.047C929.489 539.958 931.106 499.183 927.64 458.389C918.85 354.96 884.767 260.91 821.798 177.867C815.601 169.696 808.917 161.895 802.459 153.923C801.555 152.807 800.623 151.712 799.744 150.576C798.446 148.9 798.216 147.133 799.896 145.634C801.974 143.781 803.308 145.601 804.446 146.959C810.773 154.508 817.175 162.001 823.274 169.733C869.623 228.494 900.908 294.637 919.189 367.021C927.997 401.899 932.979 437.375 934.952 473.333C939.261 551.828 926.373 627.498 897.882 700.537C869.786 772.561 828.404 835.962 771.357 888.383C715.431 939.772 650.919 976.357 577.208 995.762C536.14 1006.57 494.279 1012.2 451.758 1010.57C383.714 1007.95 319.288 991.353 259.028 959.174C224.822 940.909 193.132 919.1 164.134 893.364C163.52 892.819 162.821 892.362 162.252 891.777C160.894 890.378 158.529 889.129 160.549 886.761C162.622 884.329 164.504 885.835 166.306 887.439C178.578 898.364 191.258 908.79 204.511 918.507C256.185 956.391 313.059 982.916 375.817 996.278C418.022 1005.26 460.796 1007.86 503.699 1003.84C595.448 995.248 676.522 960.416 747.595 902.063C808.829 851.789 853.049 788.87 884.513 716.573C903.359 673.269 916.167 628.223 923.528 581.047Z" fill="#C5AF9F"/>
<path d="M836.308 782.261C799.673 838.156 754.609 885.103 698.768 921.399C648.136 954.31 593.119 976.076 533.535 986.053C497.9 992.02 461.972 993.54 426.06 989.855C345.917 981.632 273.628 952.857 208.831 905.102C196.412 895.95 184.458 886.228 172.943 875.973C171.1 874.332 168.275 873.104 168.838 869.479C171.591 868.643 172.933 870.767 174.465 872.154C236.207 928.013 307.456 965.241 389.383 981.273C424.431 988.131 459.825 989.834 495.485 987.211C580.072 980.99 655.658 951.069 723.115 900.388C776.827 860.033 818.787 809.357 851.171 750.63C879.918 698.498 898.707 642.84 908.44 584.279C914.506 547.783 916.341 510.914 914.317 473.811C910.157 397.569 890.412 325.757 854.667 258.358C837.962 226.859 818.13 197.415 794.859 170.329C792.844 167.984 789.774 166.105 789.737 162.341C792.912 160.753 794.017 163.367 795.316 164.881C835.622 211.853 866.251 264.453 887.462 322.609C901.538 361.2 910.781 400.951 915.406 441.652C920.009 482.162 919.939 522.791 914.842 563.351C906.212 632.021 885.356 696.665 851.422 757.029C846.693 765.442 841.512 773.602 836.308 782.261Z" fill="#C5AF9F"/>
</svg>
