<svg width="411" height="52" viewBox="0 0 411 52" fill="none" xmlns="http://www.w3.org/2000/svg">
<path d="M392.541 51.12C388.797 51.12 385.245 50.496 381.885 49.248C378.573 47.952 376.005 46.296 374.181 44.28L375.837 41.544C377.565 43.32 379.917 44.832 382.893 46.08C385.917 47.28 389.109 47.88 392.469 47.88C395.829 47.88 398.565 47.448 400.677 46.584C402.837 45.672 404.421 44.472 405.429 42.984C406.485 41.496 407.013 39.84 407.013 38.016C407.013 35.856 406.437 34.128 405.285 32.832C404.133 31.536 402.621 30.504 400.749 29.736C398.877 28.968 396.837 28.32 394.629 27.792C392.421 27.264 390.189 26.712 387.933 26.136C385.677 25.512 383.613 24.72 381.741 23.76C379.869 22.8 378.357 21.504 377.205 19.872C376.101 18.192 375.549 16.032 375.549 13.392C375.549 10.992 376.173 8.784 377.421 6.768C378.669 4.752 380.613 3.12 383.253 1.872C385.893 0.624001 389.277 0 393.405 0C396.189 0 398.925 0.408 401.613 1.224C404.349 2.04 406.677 3.144 408.597 4.536L407.229 7.488C405.117 6.048 402.837 4.992 400.389 4.32C397.989 3.6 395.661 3.24 393.405 3.24C390.189 3.24 387.525 3.696 385.413 4.608C383.301 5.52 381.741 6.744 380.733 8.28C379.725 9.768 379.221 11.448 379.221 13.32C379.221 15.48 379.773 17.208 380.877 18.504C382.029 19.8 383.541 20.832 385.413 21.6C387.285 22.368 389.349 23.016 391.605 23.544C393.861 24.072 396.093 24.648 398.301 25.272C400.509 25.848 402.549 26.616 404.421 27.576C406.293 28.536 407.805 29.832 408.957 31.464C410.109 33.096 410.685 35.208 410.685 37.8C410.685 40.152 410.037 42.36 408.741 44.424C407.445 46.44 405.453 48.072 402.765 49.32C400.125 50.52 396.717 51.12 392.541 51.12Z" fill="black"/>
<path d="M274.024 50.76L297.208 0.360016H300.88L324.064 50.76H320.104L298.216 2.66402H299.8L277.984 50.76H274.024ZM282.52 36.576L283.744 33.48H313.912L315.136 36.576H282.52Z" fill="black"/>
<path d="M206.412 50.76V32.472L207.276 34.848L186.108 0.360016H190.14L209.364 31.68H207.348L226.572 0.360016H230.388L209.22 34.848L210.084 32.472V50.76H206.412Z" fill="black"/>
<path d="M111.687 51.12C107.943 51.12 104.463 50.496 101.247 49.248C98.0793 47.952 95.2952 46.152 92.8952 43.848C90.5432 41.496 88.7192 38.784 87.4232 35.712C86.1272 32.592 85.4792 29.208 85.4792 25.56C85.4792 21.912 86.1272 18.552 87.4232 15.48C88.7192 12.36 90.5432 9.648 92.8952 7.344C95.2952 4.992 98.0793 3.192 101.247 1.944C104.463 0.648 107.943 0 111.687 0C115.431 0 118.887 0.648 122.055 1.944C125.271 3.192 128.055 4.968 130.407 7.272C132.759 9.576 134.583 12.288 135.879 15.408C137.223 18.48 137.895 21.864 137.895 25.56C137.895 29.256 137.223 32.664 135.879 35.784C134.583 38.856 132.759 41.544 130.407 43.848C128.055 46.152 125.271 47.952 122.055 49.248C118.887 50.496 115.431 51.12 111.687 51.12ZM111.687 47.736C114.903 47.736 117.879 47.184 120.615 46.08C123.351 44.976 125.727 43.416 127.743 41.4C129.759 39.384 131.319 37.032 132.423 34.344C133.575 31.656 134.151 28.728 134.151 25.56C134.151 22.344 133.575 19.416 132.423 16.776C131.319 14.088 129.759 11.736 127.743 9.72C125.727 7.704 123.351 6.144 120.615 5.04C117.879 3.936 114.903 3.384 111.687 3.384C108.471 3.384 105.495 3.936 102.759 5.04C100.023 6.144 97.6232 7.704 95.5592 9.72C93.5433 11.736 91.9593 14.088 90.8073 16.776C89.7033 19.416 89.1513 22.344 89.1513 25.56C89.1513 28.728 89.7033 31.656 90.8073 34.344C91.9593 37.032 93.5433 39.384 95.5592 41.4C97.6232 43.416 100.023 44.976 102.759 46.08C105.495 47.184 108.471 47.736 111.687 47.736Z" fill="black"/>
<path d="M13.392 51.12C10.656 51.12 8.088 50.496 5.688 49.248C3.336 47.952 1.44 46.176 0 43.92L2.232 41.472C3.624 43.536 5.256 45.12 7.128 46.224C9.048 47.28 11.136 47.808 13.392 47.808C20.064 47.808 23.4 43.848 23.4 35.928V3.67202H4.824V0.360016H27.072V35.928C27.072 40.968 25.92 44.76 23.616 47.304C21.312 49.848 17.904 51.12 13.392 51.12Z" fill="black"/>
</svg>
