<svg width="936" height="1011" viewBox="0 0 936 1011" fill="none" xmlns="http://www.w3.org/2000/svg">
<path d="M473.218 275.846C472.991 245.733 470.11 216.355 469.014 186.879C467.011 231.068 463.329 275.179 464.569 319.451C461.656 319.934 461.195 317.688 460.247 316.295C440.54 287.324 426.983 255.889 423.704 220.738C420.299 184.238 428.65 150.231 447.216 118.666C452.67 109.392 458.931 100.675 465.081 91.8704C467.705 88.1139 469.893 88.042 472.686 91.6694C512.874 143.874 526.681 200.725 503.751 264.355C498.203 279.752 492.23 294.866 483.641 308.837C481.314 312.622 479.332 316.724 474.336 320.377C473.745 305.012 474.672 290.673 473.218 275.846Z" fill="#E88395"/>
<path d="M516.173 342.359C507.273 341.357 499.271 339.187 490.189 335.508C518.268 323.406 546.157 314.622 571.785 299.945C564.704 301.776 557.582 303.467 550.552 305.477C543.209 307.577 535.934 309.924 528.666 312.276C521.398 314.629 514.252 317.394 506.91 319.478C499.641 321.541 492.772 325.061 484.819 326.038C485.044 324.325 486.024 322.825 486.285 322.464C505.04 296.541 523.615 273.522 553.183 258.867C592.444 239.407 632.573 238.803 673.494 252.682C674.863 253.146 676.192 253.725 677.552 254.214C690.651 258.927 690.645 258.92 682.771 270.106C659.676 302.916 630.005 326.937 590.892 337.908C566.56 344.732 541.801 346.913 516.173 342.359Z" fill="#C5AF9F"/>
<path d="M421.976 342.359C430.877 341.357 438.879 339.187 447.961 335.508C419.881 323.406 391.992 314.622 366.364 299.945C373.446 301.776 380.567 303.467 387.598 305.477C394.941 307.577 402.216 309.924 409.483 312.276C416.752 314.629 423.898 317.394 431.239 319.478C438.509 321.541 445.378 325.061 453.331 326.038C453.331 325.074 451.816 322.825 451.555 322.464C432.799 296.541 414.535 273.522 384.966 258.867C345.705 239.407 305.577 238.803 264.656 252.682C263.287 253.146 261.958 253.725 260.597 254.214C247.498 258.927 247.504 258.92 255.378 270.106C278.473 302.916 308.144 326.937 347.258 337.908C371.59 344.732 396.348 346.913 421.976 342.359Z" fill="#C5AF9F"/>
<path d="M544.211 485.393C500.596 457.503 465.222 390.697 475.659 353.728C499.422 379.961 521.339 406.644 546.08 430.752C525.256 402.977 505.822 374.186 483.341 346.36C489.925 344.909 494.692 346.618 499.229 347.849C535.516 357.7 566.256 375.529 585.803 409.127C598.412 430.801 604.686 454.315 606.282 479.187C606.718 485.979 606.892 492.789 607.101 499.594C607.313 506.52 605.834 507.9 599.231 506.568C579.852 502.657 561.471 496.089 544.211 485.393Z" fill="#C5AF9F"/>
<path d="M380.352 377.752C402.263 359.175 426.798 347.906 455.419 345.683C452.341 354.214 446.594 360.915 440.686 366.516C444.733 359.674 446.166 357.042 448.186 351.893C391.087 358.206 332.305 436.599 341.65 494.783C350.333 493.435 358.625 490.648 366.987 488.123C415.049 473.608 440.823 438.696 454.65 392.694C457.339 383.745 459.041 374.684 460.031 365.423C460.381 362.148 460.774 359.283 456.235 358.921C457.728 355.795 459.644 354.174 462.348 353.704C464.219 354.421 464.394 355.938 464.319 357.355C462.182 397.713 451.404 434.541 421.536 463.836C402.39 482.615 379.186 493.666 353.747 500.714C348.578 502.146 343.322 503.26 338.123 504.587C334.491 505.515 332.687 504.499 332.708 500.436C332.93 458.467 341.013 419.135 370.629 387.021C373.559 383.843 376.878 381.024 380.352 377.752Z" fill="#C5AF9F"/>
<path d="M412.484 413.629C401.321 427.273 396.36 434.095 382.716 442.777C407.523 411.148 413.725 399.365 439.772 367.736C424.888 397.505 421.787 401.226 412.484 413.629Z" fill="#C5AF9F"/>
<path d="M689.15 681.56C689.15 685.88 689.15 690.74 689.15 696.14C689.27 701.54 689.45 706.64 689.69 711.44C690.05 716.12 690.53 720.08 691.13 723.32C691.85 726.44 692.81 728 694.01 728H681.77C682.97 728 683.87 726.44 684.47 723.32C685.19 720.08 685.67 716.12 685.91 711.44C686.27 706.64 686.45 701.54 686.45 696.14C686.57 690.74 686.63 685.88 686.63 681.56V648.44C686.63 644.12 686.63 639.26 686.63 633.86C686.63 628.46 686.45 623.42 686.09 618.74C685.85 613.94 685.37 609.98 684.65 606.86C683.93 603.62 682.85 602 681.41 602H698.51L740.09 687.14L779.15 602H796.25C794.93 602 793.91 603.62 793.19 606.86C792.47 609.98 791.93 613.94 791.57 618.74C791.33 623.42 791.15 628.46 791.03 633.86C791.03 639.26 791.03 644.12 791.03 648.44V681.56C791.03 685.88 791.03 690.74 791.03 696.14C791.15 701.54 791.33 706.64 791.57 711.44C791.93 716.12 792.47 720.08 793.19 723.32C793.91 726.44 794.93 728 796.25 728H771.23C772.67 728 773.75 726.44 774.47 723.32C775.19 720.08 775.67 716.12 775.91 711.44C776.27 706.64 776.45 701.54 776.45 696.14C776.57 690.74 776.63 685.88 776.63 681.56V613.7L733.97 705.5H732.53L689.15 615.5V681.56Z" fill="black"/>
<path d="M629.184 728H545.124C546.564 728 547.644 726.44 548.364 723.32C549.084 720.08 549.564 716.12 549.804 711.44C550.164 706.64 550.344 701.54 550.344 696.14C550.344 690.74 550.344 685.88 550.344 681.56V648.44C550.344 644.12 550.344 639.26 550.344 633.86C550.344 628.46 550.164 623.42 549.804 618.74C549.564 613.94 549.084 609.98 548.364 606.86C547.644 603.62 546.564 602 545.124 602H624.684V610.46C615.084 605.9 601.464 603.62 583.824 603.62H564.924V660.86H577.164C582.924 660.86 588.324 660.56 593.364 659.96C598.404 659.24 602.364 658.16 605.244 656.72V666.62C602.364 665.18 598.404 664.16 593.364 663.56C588.324 662.84 582.924 662.48 577.164 662.48H564.924V710.18C564.924 715.1 566.064 719 568.344 721.88C570.624 724.64 574.584 726.14 580.224 726.38H588.684H588.324C597.324 726.38 605.124 725.84 611.724 724.76C618.324 723.56 624.144 721.76 629.184 719.36V728Z" fill="black"/>
<path d="M496.317 602C495.597 602 494.817 602.6 493.977 603.8C493.137 605 492.237 606.56 491.277 608.48C490.317 610.4 489.297 612.62 488.217 615.14C487.257 617.66 486.237 620.18 485.157 622.7L442.497 731.24H441.237L397.137 623.96C396.057 621.2 394.917 618.5 393.717 615.86C392.517 613.22 391.317 610.88 390.117 608.84C388.917 606.8 387.717 605.18 386.517 603.98C385.317 602.66 384.117 602 382.917 602H410.817C409.497 602 408.717 602.84 408.477 604.52C408.357 606.08 408.537 608.06 409.017 610.46C409.617 612.86 410.397 615.5 411.357 618.38C412.437 621.26 413.457 623.96 414.417 626.48L448.257 711.44L482.817 622.34C485.097 616.7 486.777 611.9 487.857 607.94C488.937 603.98 488.877 602 487.677 602H496.317Z" fill="black"/>
<path d="M328.737 681.56C328.737 685.88 328.737 690.74 328.737 696.14C328.857 701.54 329.037 706.64 329.277 711.44C329.637 716.12 330.177 720.08 330.897 723.32C331.617 726.44 332.697 728 334.137 728H308.937C310.377 728 311.457 726.44 312.177 723.32C312.897 720.2 313.377 716.36 313.617 711.8C313.977 707.12 314.157 702.14 314.157 696.86C314.277 691.46 314.337 686.6 314.337 682.28V647.72C314.337 643.4 314.277 638.6 314.157 633.32C314.157 627.92 313.977 622.94 313.617 618.38C313.377 613.7 312.897 609.8 312.177 606.68C311.457 603.56 310.377 602 308.937 602H334.137C332.697 602 331.617 603.62 330.897 606.86C330.177 609.98 329.637 613.94 329.277 618.74C329.037 623.42 328.857 628.46 328.737 633.86C328.737 639.26 328.737 644.12 328.737 648.44V681.56Z" fill="black"/>
<path d="M254.64 708.92C246.36 716.24 237.6 721.64 228.36 725.12C219.24 728.48 210.18 730.16 201.18 730.16C192.42 730.16 184.08 728.66 176.16 725.66C168.24 722.66 161.22 718.34 155.1 712.7C149.1 706.94 144.3 700.04 140.7 692C137.1 683.96 135.3 674.9 135.3 664.82C135.3 653.78 137.16 644.18 140.88 636.02C144.72 627.74 149.76 620.9 156 615.5C162.36 609.98 169.62 605.9 177.78 603.26C186.06 600.5 194.58 599.12 203.34 599.12C210.9 599.12 218.4 600.14 225.84 602.18C233.28 604.1 240.36 606.98 247.08 610.82L240.06 621.8C234.18 615.32 227.64 610.4 220.44 607.04C213.24 603.56 206.04 601.82 198.84 601.82C189.48 601.82 181.62 603.62 175.26 607.22C168.9 610.82 163.8 615.62 159.96 621.62C156.24 627.5 153.72 634.22 152.4 641.78C151.08 649.34 150.84 657.08 151.68 665C152.64 672.8 154.56 680.48 157.44 688.04C160.32 695.6 164.1 702.38 168.78 708.38C173.46 714.26 178.92 719 185.16 722.6C191.52 726.2 198.48 728 206.04 728C210.6 728 214.98 727.28 219.18 725.84C223.38 724.4 227.04 722.42 230.16 719.9C233.4 717.26 235.92 714.08 237.72 710.36C239.64 706.52 240.6 702.26 240.6 697.58V684.26C240.6 681.74 240.48 679.52 240.24 677.6C240.12 675.56 239.52 673.88 238.44 672.56C237.48 671.12 235.98 670.04 233.94 669.32C232.02 668.48 229.26 668.06 225.66 668.06H215.58V666.44H256.62C255.54 672.68 254.94 679.16 254.82 685.88C254.7 692.48 254.64 700.16 254.64 708.92Z" fill="black"/>
<path d="M640.469 834.36C636.725 834.36 633.173 833.736 629.813 832.488C626.501 831.192 623.933 829.536 622.109 827.52L623.765 824.784C625.493 826.56 627.845 828.072 630.821 829.32C633.845 830.52 637.037 831.12 640.397 831.12C643.757 831.12 646.493 830.688 648.605 829.824C650.765 828.912 652.349 827.712 653.357 826.224C654.413 824.736 654.941 823.08 654.941 821.256C654.941 819.096 654.365 817.368 653.213 816.072C652.061 814.776 650.549 813.744 648.677 812.976C646.805 812.208 644.765 811.56 642.557 811.032C640.349 810.504 638.117 809.952 635.861 809.376C633.605 808.752 631.541 807.96 629.669 807C627.797 806.04 626.285 804.744 625.133 803.112C624.029 801.432 623.477 799.272 623.477 796.632C623.477 794.232 624.101 792.024 625.349 790.008C626.597 787.992 628.541 786.36 631.181 785.112C633.821 783.864 637.205 783.24 641.333 783.24C644.117 783.24 646.853 783.648 649.541 784.464C652.277 785.28 654.605 786.384 656.525 787.776L655.157 790.728C653.045 789.288 650.765 788.232 648.317 787.56C645.917 786.84 643.589 786.48 641.333 786.48C638.117 786.48 635.453 786.936 633.341 787.848C631.229 788.76 629.669 789.984 628.661 791.52C627.653 793.008 627.149 794.688 627.149 796.56C627.149 798.72 627.701 800.448 628.805 801.744C629.957 803.04 631.469 804.072 633.341 804.84C635.213 805.608 637.277 806.256 639.533 806.784C641.789 807.312 644.021 807.888 646.229 808.512C648.437 809.088 650.477 809.856 652.349 810.816C654.221 811.776 655.733 813.072 656.885 814.704C658.037 816.336 658.613 818.448 658.613 821.04C658.613 823.392 657.965 825.6 656.669 827.664C655.373 829.68 653.381 831.312 650.693 832.56C648.053 833.76 644.645 834.36 640.469 834.36Z" fill="black"/>
<path d="M521.952 834L545.136 783.6H548.808L571.992 834H568.032L546.144 785.904H547.728L525.912 834H521.952ZM530.448 819.816L531.672 816.72H561.84L563.064 819.816H530.448Z" fill="black"/>
<path d="M454.34 834V815.712L455.204 818.088L434.036 783.6H438.068L457.292 814.92H455.276L474.5 783.6H478.316L457.148 818.088L458.012 815.712V834H454.34Z" fill="black"/>
<path d="M359.615 834.36C355.871 834.36 352.391 833.736 349.175 832.488C346.007 831.192 343.223 829.392 340.823 827.088C338.471 824.736 336.647 822.024 335.351 818.952C334.055 815.832 333.407 812.448 333.407 808.8C333.407 805.152 334.055 801.792 335.351 798.72C336.647 795.6 338.471 792.888 340.823 790.584C343.223 788.232 346.007 786.432 349.175 785.184C352.391 783.888 355.871 783.24 359.615 783.24C363.359 783.24 366.815 783.888 369.983 785.184C373.199 786.432 375.983 788.208 378.335 790.512C380.687 792.816 382.511 795.528 383.807 798.648C385.151 801.72 385.823 805.104 385.823 808.8C385.823 812.496 385.151 815.904 383.807 819.024C382.511 822.096 380.687 824.784 378.335 827.088C375.983 829.392 373.199 831.192 369.983 832.488C366.815 833.736 363.359 834.36 359.615 834.36ZM359.615 830.976C362.831 830.976 365.807 830.424 368.543 829.32C371.279 828.216 373.655 826.656 375.671 824.64C377.687 822.624 379.247 820.272 380.351 817.584C381.503 814.896 382.079 811.968 382.079 808.8C382.079 805.584 381.503 802.656 380.351 800.016C379.247 797.328 377.687 794.976 375.671 792.96C373.655 790.944 371.279 789.384 368.543 788.28C365.807 787.176 362.831 786.624 359.615 786.624C356.399 786.624 353.423 787.176 350.687 788.28C347.951 789.384 345.551 790.944 343.487 792.96C341.471 794.976 339.887 797.328 338.735 800.016C337.631 802.656 337.079 805.584 337.079 808.8C337.079 811.968 337.631 814.896 338.735 817.584C339.887 820.272 341.471 822.624 343.487 824.64C345.551 826.656 347.951 828.216 350.687 829.32C353.423 830.424 356.399 830.976 359.615 830.976Z" fill="black"/>
<path d="M261.32 834.36C258.584 834.36 256.016 833.736 253.616 832.488C251.264 831.192 249.368 829.416 247.928 827.16L250.16 824.712C251.552 826.776 253.184 828.36 255.056 829.464C256.976 830.52 259.064 831.048 261.32 831.048C267.992 831.048 271.328 827.088 271.328 819.168V786.912H252.752V783.6H275V819.168C275 824.208 273.848 828 271.544 830.544C269.24 833.088 265.832 834.36 261.32 834.36Z" fill="black"/>
<path d="M10.9577 612.769C6.37592 590.446 3.23895 568.458 1.5479 546.243C-0.39382 520.734 -0.426179 495.209 0.990182 469.71C2.94274 434.559 8.90013 399.995 17.7581 365.931C38.2088 287.285 74.0603 216.666 128.425 155.992C184.274 93.6618 251.714 48.6481 331.488 22.6252C370.298 9.96471 410.016 2.40314 450.902 0.491624C538.258 -3.59252 619.201 17.8887 694.99 60.5018C707.281 67.4127 719.097 75.13 730.639 83.236C732.529 84.5634 736.586 85.4365 734.34 88.9447C732.166 92.341 729.617 89.4592 727.59 88.0767C707.475 74.358 686.75 61.6875 664.873 50.9369C621.615 29.6796 576.145 15.045 528.398 9.09795C420.698 -4.31622 320.836 18.7763 229.614 77.4826C137.432 136.807 74.7196 219.529 37.8929 322.414C25.4559 357.16 16.5628 392.816 11.6065 429.28C6.3479 467.968 4.91127 506.848 8.21936 545.967C13.5033 608.451 28.3838 668.292 54.0481 725.477C67.9814 756.523 84.9786 785.819 104.452 813.697C106.348 816.411 108.797 818.942 103.944 823C57.2659 759.812 26.9246 689.806 10.9577 612.769Z" fill="#C5AF9F"/>
<path d="M52.6899 314.651C76.1199 255.07 108.964 201.93 152.609 155.721C179.877 126.852 211.198 102.974 245.028 82.2889C298.857 49.3752 357.227 29.0508 419.583 21.2594C494.965 11.8404 567.784 22.9751 637.699 52.8517C667.32 65.5097 695.119 81.4232 721.448 99.9587C723.869 101.663 723.865 101.67 725 104.914C722.61 106.266 721.174 104.307 719.642 103.221C674.302 71.0883 624.988 47.4446 571.021 34.0234C530.767 24.0123 489.944 19.8256 448.39 22.3729C360.437 27.7646 281.509 57.5239 211.005 109.996C145.329 158.876 97.7409 222.116 64.9625 296.892C47.0438 337.769 35.1656 380.432 28.0801 424.422C21.7086 463.979 20.7819 503.816 23.7043 543.742C29.2739 619.835 51.1686 691.016 88.2609 757.547C97.2329 773.64 107.148 789.16 118.139 803.97C119.366 805.624 121.496 807.103 120.518 809.904C116.797 810.592 115.912 807.414 114.523 805.541C91.7487 774.824 73.5283 741.515 58.5473 706.37C43.9747 672.182 33.4064 636.754 26.5126 600.276C19.3542 562.398 15.7013 524.088 17.4207 485.565C20.037 426.944 31.0705 369.902 52.6899 314.651Z" fill="#C5AF9F"/>
<path d="M923.528 581.047C929.489 539.958 931.106 499.183 927.64 458.389C918.85 354.96 884.767 260.91 821.798 177.867C815.601 169.696 808.917 161.895 802.459 153.923C801.555 152.807 800.623 151.712 799.744 150.576C798.446 148.9 798.216 147.133 799.896 145.634C801.974 143.781 803.308 145.601 804.446 146.959C810.773 154.508 817.175 162.001 823.274 169.733C869.623 228.494 900.908 294.637 919.189 367.021C927.997 401.899 932.979 437.375 934.952 473.333C939.261 551.828 926.373 627.498 897.882 700.537C869.786 772.561 828.404 835.962 771.357 888.383C715.431 939.772 650.919 976.357 577.208 995.762C536.14 1006.57 494.279 1012.2 451.758 1010.57C383.714 1007.95 319.288 991.353 259.028 959.174C224.822 940.909 193.132 919.1 164.134 893.364C163.52 892.819 162.821 892.362 162.252 891.777C160.894 890.378 158.529 889.129 160.549 886.761C162.622 884.328 164.504 885.835 166.306 887.439C178.578 898.364 191.258 908.79 204.511 918.507C256.185 956.391 313.059 982.916 375.817 996.278C418.022 1005.26 460.796 1007.86 503.699 1003.84C595.448 995.248 676.521 960.416 747.595 902.063C808.829 851.789 853.049 788.87 884.513 716.573C903.359 673.269 916.167 628.224 923.528 581.047Z" fill="#C5AF9F"/>
<path d="M836.308 782.261C799.673 838.156 754.609 885.103 698.768 921.399C648.136 954.31 593.119 976.076 533.535 986.053C497.9 992.02 461.972 993.54 426.06 989.855C345.917 981.632 273.628 952.857 208.831 905.102C196.412 895.95 184.458 886.228 172.943 875.973C171.1 874.332 168.275 873.104 168.838 869.479C171.591 868.643 172.933 870.767 174.465 872.154C236.207 928.013 307.456 965.241 389.383 981.273C424.431 988.131 459.825 989.834 495.485 987.211C580.072 980.99 655.658 951.069 723.115 900.388C776.827 860.033 818.787 809.357 851.171 750.63C879.918 698.498 898.708 642.84 908.44 584.279C914.506 547.783 916.341 510.914 914.317 473.811C910.157 397.569 890.412 325.757 854.667 258.358C837.962 226.859 818.13 197.415 794.859 170.329C792.844 167.984 789.774 166.105 789.737 162.341C792.912 160.753 794.017 163.367 795.316 164.881C835.622 211.853 866.251 264.453 887.462 322.609C901.538 361.2 910.781 400.951 915.406 441.652C920.009 482.162 919.939 522.791 914.842 563.351C906.212 632.021 885.356 696.665 851.422 757.029C846.693 765.442 841.512 773.602 836.308 782.261Z" fill="#C5AF9F"/>
<path d="M139.5 801L144.096 838.5L139.5 876L134.904 838.5L139.5 801ZM120 838.5L139.5 833.917L159 838.5L139.5 843.083L120 838.5Z" fill="#E79CB3"/>
<path d="M757.5 94L762.096 131.5L757.5 169L752.904 131.5L757.5 94ZM738 131.5L757.5 126.917L777 131.5L757.5 136.083L738 131.5Z" fill="#E79CB3"/>
</svg>
