<svg width="936" height="1011" viewBox="0 0 936 1011" fill="none" xmlns="http://www.w3.org/2000/svg">
<ellipse cx="467.88" cy="505.425" rx="467.88" ry="505.425" fill="#FBF6F1"/>
<path d="M472.218 294.846C471.991 264.733 469.11 235.355 468.014 205.879C466.011 250.068 462.329 294.179 463.569 338.451C460.656 338.934 460.195 336.688 459.247 335.295C439.54 306.324 425.983 274.889 422.704 239.738C419.299 203.238 427.65 169.231 446.216 137.666C451.67 128.392 457.931 119.675 464.081 110.87C466.705 107.114 468.893 107.042 471.686 110.669C511.874 162.874 525.681 219.725 502.751 283.355C497.203 298.752 491.23 313.866 482.641 327.837C480.314 331.622 478.332 335.724 473.336 339.377C472.745 324.012 473.672 309.673 472.218 294.846Z" fill="#E88395"/>
<path d="M515.173 361.359C506.273 360.357 498.271 358.187 489.189 354.508C517.268 342.406 545.157 333.622 570.785 318.945C563.704 320.776 556.582 322.467 549.552 324.477C542.209 326.577 534.934 328.924 527.666 331.276C520.398 333.629 513.252 336.394 505.91 338.478C498.641 340.541 491.772 344.061 483.819 345.038C484.044 343.325 485.024 341.825 485.285 341.464C504.04 315.541 522.615 292.522 552.183 277.867C591.444 258.407 631.573 257.803 672.494 271.682C673.863 272.146 675.192 272.725 676.552 273.214C689.651 277.927 689.645 277.92 681.771 289.106C658.676 321.916 629.005 345.937 589.892 356.908C565.56 363.732 540.801 365.913 515.173 361.359Z" fill="#C5AF9F"/>
<path d="M420.976 361.359C429.877 360.357 437.879 358.187 446.961 354.508C418.881 342.406 390.992 333.622 365.364 318.945C372.446 320.776 379.567 322.467 386.598 324.477C393.941 326.577 401.215 328.924 408.483 331.276C415.752 333.629 422.898 336.394 430.239 338.478C437.509 340.541 444.378 344.061 452.331 345.038C452.331 344.074 450.816 341.825 450.555 341.464C431.799 315.541 413.534 292.522 383.966 277.867C344.705 258.407 304.577 257.803 263.655 271.682C262.287 272.146 260.958 272.725 259.597 273.214C246.498 277.927 246.504 277.92 254.378 289.106C277.473 321.916 307.144 345.937 346.257 356.908C370.589 363.732 395.348 365.913 420.976 361.359Z" fill="#C5AF9F"/>
<path d="M543.211 504.393C499.596 476.503 464.222 409.697 474.659 372.728C498.422 398.961 520.339 425.643 545.08 449.752C524.256 421.977 504.822 393.186 482.341 365.36C488.925 363.909 493.692 365.618 498.229 366.849C534.516 376.7 565.256 394.529 584.803 428.127C597.412 449.801 603.686 473.315 605.282 498.187C605.718 504.979 605.892 511.789 606.101 518.594C606.313 525.52 604.834 526.9 598.231 525.568C578.852 521.657 560.471 515.089 543.211 504.393Z" fill="#C5AF9F"/>
<path d="M379.352 396.752C401.263 378.175 425.798 366.906 454.419 364.683C451.341 373.214 445.594 379.914 439.686 385.516C443.733 378.674 445.166 376.042 447.185 370.893C390.087 377.206 331.305 455.599 340.65 513.783C349.333 512.434 357.624 509.648 365.986 507.123C414.049 492.608 439.823 457.696 453.649 411.694C456.339 402.745 458.04 393.684 459.031 384.423C459.381 381.148 459.774 378.282 455.235 377.921C456.728 374.795 458.644 373.174 461.348 372.704C463.219 373.421 463.394 374.938 463.319 376.355C461.182 416.713 450.404 453.541 420.536 482.836C401.39 501.615 378.186 512.665 352.747 519.713C347.578 521.145 342.322 522.26 337.123 523.587C333.491 524.515 331.686 523.499 331.708 519.436C331.93 477.467 340.012 438.135 369.629 406.021C372.559 402.843 375.878 400.024 379.352 396.752Z" fill="#C5AF9F"/>
<path d="M411.484 432.629C400.321 446.273 395.36 453.094 381.716 461.777C406.523 430.148 412.725 418.365 438.772 386.736C423.888 416.504 420.787 420.225 411.484 432.629Z" fill="#C5AF9F"/>
<path d="M689.302 695.66C687.142 701.3 685.462 706.1 684.262 710.06C683.182 714.02 683.242 716 684.442 716H675.802C676.522 716 677.302 715.4 678.142 714.2C678.982 713 679.882 711.44 680.842 709.52C681.802 707.48 682.762 705.26 683.722 702.86C684.802 700.34 685.882 697.82 686.962 695.3L729.802 586.94H731.062L774.982 694.04C776.062 696.8 777.202 699.5 778.402 702.14C779.602 704.78 780.802 707.12 782.002 709.16C783.322 711.2 784.582 712.88 785.782 714.2C786.982 715.4 788.182 716 789.382 716H761.302C762.622 716 763.342 715.22 763.462 713.66C763.702 711.98 763.522 709.94 762.922 707.54C762.442 705.14 761.662 702.5 760.582 699.62C759.622 696.74 758.662 694.04 757.702 691.52L751.942 676.94H696.502L689.302 695.66ZM697.222 675.32H751.222L723.862 606.56L697.222 675.32Z" fill="black"/>
<path d="M577.812 590C587.532 590 596.052 591.8 603.372 595.4C610.692 599 616.752 603.74 621.552 609.62C626.472 615.5 630.132 622.22 632.532 629.78C635.052 637.34 636.312 645.08 636.312 653C636.312 660.8 635.112 668.48 632.712 676.04C630.312 683.48 626.652 690.2 621.732 696.2C616.932 702.08 610.872 706.88 603.552 710.6C596.352 714.2 587.892 716 578.172 716H529.932C531.372 716 532.452 714.44 533.172 711.32C533.892 708.08 534.372 704.12 534.612 699.44C534.972 694.64 535.152 689.54 535.152 684.14C535.152 678.74 535.152 673.88 535.152 669.56V636.44C535.152 632.12 535.152 627.26 535.152 621.86C535.152 616.46 534.972 611.42 534.612 606.74C534.372 601.94 533.892 597.98 533.172 594.86C532.452 591.62 531.372 590 529.932 590H577.812ZM549.732 701.42C549.732 703.34 549.792 705.14 549.912 706.82C550.032 708.38 550.392 709.7 550.992 710.78C551.712 711.86 552.732 712.7 554.052 713.3C555.492 713.9 557.532 714.26 560.172 714.38H577.992C587.592 714.38 595.572 711.38 601.932 705.38C608.292 699.26 613.032 691.64 616.152 682.52C619.392 673.4 621.012 663.56 621.012 653C621.012 642.44 619.392 632.6 616.152 623.48C612.912 614.36 608.112 606.8 601.752 600.8C595.392 594.68 587.412 591.62 577.812 591.62H549.732V701.42Z" fill="black"/>
<path d="M481.397 716H397.337C398.777 716 399.857 714.44 400.577 711.32C401.297 708.08 401.777 704.12 402.017 699.44C402.377 694.64 402.557 689.54 402.557 684.14C402.557 678.74 402.557 673.88 402.557 669.56V636.44C402.557 632.12 402.557 627.26 402.557 621.86C402.557 616.46 402.377 611.42 402.017 606.74C401.777 601.94 401.297 597.98 400.577 594.86C399.857 591.62 398.777 590 397.337 590H422.537C421.097 590 420.017 591.56 419.297 594.68C418.577 597.8 418.037 601.7 417.677 606.38C417.437 610.94 417.257 615.92 417.137 621.32C417.137 626.6 417.137 631.4 417.137 635.72V701.42C417.137 705.26 418.037 708.32 419.837 710.6C421.637 712.88 425.237 714.14 430.637 714.38H440.897C449.897 714.38 457.637 713.84 464.117 712.76C470.597 711.56 476.357 709.76 481.397 707.36V716Z" fill="black"/>
<path d="M339.737 669.56C339.737 673.88 339.737 678.74 339.737 684.14C339.857 689.54 340.037 694.64 340.277 699.44C340.637 704.12 341.177 708.08 341.897 711.32C342.617 714.44 343.697 716 345.137 716H319.937C321.377 716 322.457 714.44 323.177 711.32C323.897 708.2 324.377 704.36 324.617 699.8C324.977 695.12 325.157 690.14 325.157 684.86C325.277 679.46 325.337 674.6 325.337 670.28V635.72C325.337 631.4 325.277 626.6 325.157 621.32C325.157 615.92 324.977 610.94 324.617 606.38C324.377 601.7 323.897 597.8 323.177 594.68C322.457 591.56 321.377 590 319.937 590H345.137C343.697 590 342.617 591.62 341.897 594.86C341.177 597.98 340.637 601.94 340.277 606.74C340.037 611.42 339.857 616.46 339.737 621.86C339.737 627.26 339.737 632.12 339.737 636.44V669.56Z" fill="black"/>
<path d="M265.64 696.92C257.36 704.24 248.6 709.64 239.36 713.12C230.24 716.48 221.18 718.16 212.18 718.16C203.42 718.16 195.08 716.66 187.16 713.66C179.24 710.66 172.22 706.34 166.1 700.7C160.1 694.94 155.3 688.04 151.7 680C148.1 671.96 146.3 662.9 146.3 652.82C146.3 641.78 148.16 632.18 151.88 624.02C155.72 615.74 160.76 608.9 167 603.5C173.36 597.98 180.62 593.9 188.78 591.26C197.06 588.5 205.58 587.12 214.34 587.12C221.9 587.12 229.4 588.14 236.84 590.18C244.28 592.1 251.36 594.98 258.08 598.82L251.06 609.8C245.18 603.32 238.64 598.4 231.44 595.04C224.24 591.56 217.04 589.82 209.84 589.82C200.48 589.82 192.62 591.62 186.26 595.22C179.9 598.82 174.8 603.62 170.96 609.62C167.24 615.5 164.72 622.22 163.4 629.78C162.08 637.34 161.84 645.08 162.68 653C163.64 660.8 165.56 668.48 168.44 676.04C171.32 683.6 175.1 690.38 179.78 696.38C184.46 702.26 189.92 707 196.16 710.6C202.52 714.2 209.48 716 217.04 716C221.6 716 225.98 715.28 230.18 713.84C234.38 712.4 238.04 710.42 241.16 707.9C244.4 705.26 246.92 702.08 248.72 698.36C250.64 694.52 251.6 690.26 251.6 685.58V672.26C251.6 669.74 251.48 667.52 251.24 665.6C251.12 663.56 250.52 661.88 249.44 660.56C248.48 659.12 246.98 658.04 244.94 657.32C243.02 656.48 240.26 656.06 236.66 656.06H226.58V654.44H267.62C266.54 660.68 265.94 667.16 265.82 673.88C265.7 680.48 265.64 688.16 265.64 696.92Z" fill="black"/>
<path d="M653.469 822.36C649.725 822.36 646.173 821.736 642.813 820.488C639.501 819.192 636.933 817.536 635.109 815.52L636.765 812.784C638.493 814.56 640.845 816.072 643.821 817.32C646.845 818.52 650.037 819.12 653.397 819.12C656.757 819.12 659.493 818.688 661.605 817.824C663.765 816.912 665.349 815.712 666.357 814.224C667.413 812.736 667.941 811.08 667.941 809.256C667.941 807.096 667.365 805.368 666.213 804.072C665.061 802.776 663.549 801.744 661.677 800.976C659.805 800.208 657.765 799.56 655.557 799.032C653.349 798.504 651.117 797.952 648.861 797.376C646.605 796.752 644.541 795.96 642.669 795C640.797 794.04 639.285 792.744 638.133 791.112C637.029 789.432 636.477 787.272 636.477 784.632C636.477 782.232 637.101 780.024 638.349 778.008C639.597 775.992 641.541 774.36 644.181 773.112C646.821 771.864 650.205 771.24 654.333 771.24C657.117 771.24 659.853 771.648 662.541 772.464C665.277 773.28 667.605 774.384 669.525 775.776L668.157 778.728C666.045 777.288 663.765 776.232 661.317 775.56C658.917 774.84 656.589 774.48 654.333 774.48C651.117 774.48 648.453 774.936 646.341 775.848C644.229 776.76 642.669 777.984 641.661 779.52C640.653 781.008 640.149 782.688 640.149 784.56C640.149 786.72 640.701 788.448 641.805 789.744C642.957 791.04 644.469 792.072 646.341 792.84C648.213 793.608 650.277 794.256 652.533 794.784C654.789 795.312 657.021 795.888 659.229 796.512C661.437 797.088 663.477 797.856 665.349 798.816C667.221 799.776 668.733 801.072 669.885 802.704C671.037 804.336 671.613 806.448 671.613 809.04C671.613 811.392 670.965 813.6 669.669 815.664C668.373 817.68 666.381 819.312 663.693 820.56C661.053 821.76 657.645 822.36 653.469 822.36Z" fill="black"/>
<path d="M534.952 822L558.136 771.6H561.808L584.992 822H581.032L559.144 773.904H560.728L538.912 822H534.952ZM543.448 807.816L544.672 804.72H574.84L576.064 807.816H543.448Z" fill="black"/>
<path d="M467.34 822V803.712L468.204 806.088L447.036 771.6H451.068L470.292 802.92H468.276L487.5 771.6H491.316L470.148 806.088L471.012 803.712V822H467.34Z" fill="black"/>
<path d="M372.615 822.36C368.871 822.36 365.391 821.736 362.175 820.488C359.007 819.192 356.223 817.392 353.823 815.088C351.471 812.736 349.647 810.024 348.351 806.952C347.055 803.832 346.407 800.448 346.407 796.8C346.407 793.152 347.055 789.792 348.351 786.72C349.647 783.6 351.471 780.888 353.823 778.584C356.223 776.232 359.007 774.432 362.175 773.184C365.391 771.888 368.871 771.24 372.615 771.24C376.359 771.24 379.815 771.888 382.983 773.184C386.199 774.432 388.983 776.208 391.335 778.512C393.687 780.816 395.511 783.528 396.807 786.648C398.151 789.72 398.823 793.104 398.823 796.8C398.823 800.496 398.151 803.904 396.807 807.024C395.511 810.096 393.687 812.784 391.335 815.088C388.983 817.392 386.199 819.192 382.983 820.488C379.815 821.736 376.359 822.36 372.615 822.36ZM372.615 818.976C375.831 818.976 378.807 818.424 381.543 817.32C384.279 816.216 386.655 814.656 388.671 812.64C390.687 810.624 392.247 808.272 393.351 805.584C394.503 802.896 395.079 799.968 395.079 796.8C395.079 793.584 394.503 790.656 393.351 788.016C392.247 785.328 390.687 782.976 388.671 780.96C386.655 778.944 384.279 777.384 381.543 776.28C378.807 775.176 375.831 774.624 372.615 774.624C369.399 774.624 366.423 775.176 363.687 776.28C360.951 777.384 358.551 778.944 356.487 780.96C354.471 782.976 352.887 785.328 351.735 788.016C350.631 790.656 350.079 793.584 350.079 796.8C350.079 799.968 350.631 802.896 351.735 805.584C352.887 808.272 354.471 810.624 356.487 812.64C358.551 814.656 360.951 816.216 363.687 817.32C366.423 818.424 369.399 818.976 372.615 818.976Z" fill="black"/>
<path d="M274.32 822.36C271.584 822.36 269.016 821.736 266.616 820.488C264.264 819.192 262.368 817.416 260.928 815.16L263.16 812.712C264.552 814.776 266.184 816.36 268.056 817.464C269.976 818.52 272.064 819.048 274.32 819.048C280.992 819.048 284.328 815.088 284.328 807.168V774.912H265.752V771.6H288V807.168C288 812.208 286.848 816 284.544 818.544C282.24 821.088 278.832 822.36 274.32 822.36Z" fill="black"/>
<path d="M10.9577 612.769C6.37592 590.446 3.23895 568.458 1.5479 546.243C-0.39382 520.734 -0.426179 495.209 0.990182 469.71C2.94274 434.559 8.90013 399.995 17.7581 365.931C38.2088 287.285 74.0603 216.666 128.425 155.992C184.274 93.6617 251.714 48.6481 331.488 22.6252C370.298 9.96471 410.016 2.40314 450.902 0.491624C538.258 -3.59252 619.2 17.8887 694.99 60.5018C707.281 67.4127 719.097 75.13 730.639 83.236C732.529 84.5634 736.586 85.4365 734.34 88.9447C732.166 92.341 729.617 89.4592 727.59 88.0767C707.475 74.358 686.75 61.6875 664.873 50.9369C621.615 29.6796 576.145 15.045 528.398 9.09795C420.698 -4.31622 320.836 18.7763 229.614 77.4826C137.432 136.807 74.7196 219.529 37.8929 322.414C25.4559 357.16 16.5628 392.816 11.6065 429.28C6.3479 467.968 4.91127 506.848 8.21936 545.967C13.5033 608.451 28.3838 668.292 54.0481 725.477C67.9814 756.523 84.9786 785.819 104.452 813.697C106.348 816.411 108.797 818.942 103.944 823C57.2659 759.812 26.9246 689.806 10.9577 612.769Z" fill="#C5AF9F"/>
<path d="M52.6899 314.651C76.1199 255.07 108.964 201.93 152.609 155.721C179.877 126.852 211.198 102.974 245.028 82.2889C298.857 49.3752 357.227 29.0508 419.583 21.2594C494.965 11.8404 567.784 22.9751 637.699 52.8517C667.32 65.5097 695.119 81.4232 721.448 99.9587C723.869 101.663 723.865 101.67 725 104.914C722.61 106.266 721.174 104.307 719.642 103.221C674.302 71.0883 624.988 47.4446 571.021 34.0234C530.767 24.0123 489.944 19.8256 448.39 22.3729C360.437 27.7646 281.509 57.5239 211.005 109.996C145.329 158.876 97.7409 222.116 64.9625 296.891C47.0438 337.769 35.1656 380.432 28.0801 424.422C21.7086 463.979 20.7819 503.816 23.7043 543.742C29.2739 619.835 51.1686 691.016 88.2609 757.547C97.2329 773.64 107.148 789.16 118.139 803.97C119.366 805.624 121.496 807.103 120.518 809.904C116.797 810.592 115.912 807.414 114.523 805.541C91.7487 774.824 73.5283 741.515 58.5473 706.37C43.9747 672.182 33.4064 636.754 26.5126 600.276C19.3542 562.398 15.7013 524.088 17.4207 485.565C20.037 426.944 31.0705 369.902 52.6899 314.651Z" fill="#C5AF9F"/>
<path d="M923.528 581.047C929.489 539.958 931.106 499.183 927.64 458.389C918.85 354.96 884.767 260.91 821.798 177.867C815.601 169.696 808.917 161.895 802.459 153.922C801.555 152.806 800.623 151.712 799.744 150.576C798.446 148.899 798.216 147.132 799.896 145.634C801.974 143.781 803.308 145.601 804.446 146.959C810.773 154.508 817.175 162.001 823.274 169.732C869.623 228.494 900.908 294.637 919.189 367.021C927.997 401.899 932.979 437.375 934.952 473.333C939.261 551.828 926.373 627.498 897.882 700.537C869.786 772.561 828.404 835.962 771.357 888.382C715.431 939.772 650.919 976.357 577.208 995.762C536.14 1006.57 494.279 1012.2 451.758 1010.57C383.714 1007.95 319.288 991.352 259.028 959.174C224.822 940.909 193.132 919.1 164.134 893.364C163.52 892.819 162.821 892.362 162.252 891.777C160.894 890.378 158.529 889.129 160.549 886.761C162.622 884.328 164.504 885.835 166.306 887.439C178.578 898.364 191.258 908.79 204.511 918.507C256.185 956.391 313.059 982.916 375.817 996.278C418.022 1005.26 460.796 1007.86 503.699 1003.84C595.448 995.247 676.522 960.416 747.595 902.063C808.829 851.789 853.049 788.869 884.513 716.573C903.359 673.269 916.167 628.223 923.528 581.047Z" fill="#C5AF9F"/>
<path d="M836.308 782.261C799.673 838.156 754.609 885.103 698.768 921.399C648.136 954.309 593.119 976.076 533.535 986.053C497.9 992.02 461.972 993.539 426.06 989.855C345.917 981.632 273.628 952.857 208.831 905.102C196.412 895.95 184.458 886.228 172.943 875.973C171.1 874.332 168.275 873.104 168.838 869.479C171.591 868.643 172.933 870.767 174.465 872.153C236.207 928.012 307.456 965.241 389.383 981.273C424.431 988.131 459.825 989.834 495.485 987.211C580.072 980.99 655.658 951.069 723.115 900.388C776.827 860.033 818.787 809.357 851.171 750.63C879.918 698.498 898.707 642.839 908.44 584.279C914.506 547.783 916.341 510.914 914.317 473.811C910.157 397.569 890.412 325.757 854.667 258.358C837.962 226.859 818.13 197.415 794.859 170.329C792.844 167.984 789.774 166.104 789.737 162.341C792.912 160.753 794.017 163.366 795.316 164.881C835.622 211.853 866.251 264.453 887.462 322.609C901.538 361.2 910.781 400.951 915.406 441.652C920.009 482.162 919.939 522.79 914.842 563.351C906.212 632.021 885.356 696.665 851.422 757.029C846.693 765.442 841.512 773.601 836.308 782.261Z" fill="#C5AF9F"/>
<path d="M139.5 801L144.096 838.5L139.5 876L134.904 838.5L139.5 801ZM120 838.5L139.5 833.917L159 838.5L139.5 843.083L120 838.5Z" fill="#E79CB3"/>
<path d="M757.5 94L762.096 131.5L757.5 169L752.904 131.5L757.5 94ZM738 131.5L757.5 126.917L777 131.5L757.5 136.083L738 131.5Z" fill="#E79CB3"/>
</svg>
